<svg xmlns="http://www.w3.org/2000/svg" xmlns:xlink="http://www.w3.org/1999/xlink" version="1.1" width="1029.7969pt" height="373.08073pt" viewBox="0 0 1029.7969 373.08073">
<defs>
<clipPath id="clip_0">
<path transform="matrix(1,0,0,-1,0,373.08073)" d="M73.99687 58.44633H370.4344V335.64634H73.99687Z"/>
</clipPath>
<clipPath id="clip_1">
<path transform="matrix(1,0,0,-1,0,373.08073)" d="M73.99687 58.44633H370.4344V335.64634H73.99687Z"/>
</clipPath>
<clipPath id="clip_2">
<path transform="matrix(1,0,0,-1,0,373.08073)" d="M73.99687 58.44633H370.4344V335.64634H73.99687Z"/>
</clipPath>
<clipPath id="clip_3">
<path transform="matrix(1,0,0,-1,0,373.08073)" d="M73.99687 58.44633H370.4344V335.64634H73.99687Z"/>
</clipPath>
<clipPath id="clip_4">
<path transform="matrix(1,0,0,-1,0,373.08073)" d="M73.99687 58.44633H370.4344V335.64634H73.99687Z"/>
</clipPath>
<clipPath id="clip_5">
<path transform="matrix(1,0,0,-1,0,373.08073)" d="M73.99687 58.44633H370.4344V335.64634H73.99687Z"/>
</clipPath>
<clipPath id="clip_6">
<path transform="matrix(1,0,0,-1,0,373.08073)" d="M73.99687 58.44633H370.4344V335.64634H73.99687Z"/>
</clipPath>
<clipPath id="clip_7">
<path transform="matrix(1,0,0,-1,0,373.08073)" d="M73.99687 58.44633H370.4344V335.64634H73.99687Z"/>
</clipPath>
<clipPath id="clip_8">
<path transform="matrix(1,0,0,-1,0,373.08073)" d="M73.99687 58.44633H370.4344V335.64634H73.99687Z"/>
</clipPath>
<clipPath id="clip_9">
<path transform="matrix(1,0,0,-1,0,373.08073)" d="M73.99687 58.44633H370.4344V335.64634H73.99687Z"/>
</clipPath>
<clipPath id="clip_10">
<path transform="matrix(1,0,0,-1,0,373.08073)" d="M73.99687 58.44633H370.4344V335.64634H73.99687Z"/>
</clipPath>
<clipPath id="clip_11">
<path transform="matrix(1,0,0,-1,0,373.08073)" d="M73.99687 58.44633H370.4344V335.64634H73.99687Z"/>
</clipPath>
<g id="font_12_90">
<path transform="matrix(.001,0,0,.001,0,0)" d="M131 729H703L689 654 124 83H589L573 0H-22L-8 75 557 646H115L131 729Z"/>
</g>
<g id="font_13_67">
<path transform="matrix(.001,0,0,.001,0,0)" d="M644 673V569C611 600 575 623 538 638 500 653 460 661 418 661 335 661 271 635 227 584 182 533 160 460 160 364 160 268 182 194 227 143 271 92 335 67 418 67 460 67 500 75 538 90 575 105 611 128 644 159V56C609 33 573 15 534 3 496-8 455-14 412-14 302-14 215 20 151 87 88 154 56 247 56 364 56 481 88 574 151 641 215 708 302 742 412 742 456 742 497 736 535 725 574 714 610 696 644 673Z"/>
</g>
<g id="font_13_111">
<path transform="matrix(.001,0,0,.001,0,0)" d="M306 484C258 484 220 465 192 427 164 390 150 338 150 273 150 208 164 156 191 118 219 81 257 62 306 62 354 62 392 81 420 119 448 156 462 208 462 273 462 338 448 389 420 427 392 465 354 484 306 484ZM306 560C384 560 445 535 490 484 535 433 557 363 557 273 557 184 535 113 490 62 445 11 384-14 306-14 227-14 166 11 122 62 77 113 55 184 55 273 55 363 77 433 122 484 166 535 227 560 306 560Z"/>
</g>
<g id="font_13_84">
<path transform="matrix(.001,0,0,.001,0,0)" d="M-3 729H614V646H355V0H256V646H-3V729Z"/>
</g>
<g id="font_13_116">
<path transform="matrix(.001,0,0,.001,0,0)" d="M183 702V547H368V477H183V180C183 135 189 107 201 94 214 81 239 75 276 75H368V0H276C207 0 159 13 132 39 106 65 93 112 93 180V477H27V547H93V702H183Z"/>
</g>
<g id="font_13_108">
<path transform="matrix(.001,0,0,.001,0,0)" d="M94 760H184V0H94V760Z"/>
</g>
<g id="font_13_119">
<path transform="matrix(.001,0,0,.001,0,0)" d="M42 547H132L244 120 356 547H462L574 120 686 547H776L633 0H527L409 448 291 0H185L42 547Z"/>
</g>
<g id="font_13_82">
<path transform="matrix(.001,0,0,.001,0,0)" d="M444 342C465 335 486 319 505 296 526 273 546 240 566 199L666 0H560L467 187C443 236 419 268 396 284 374 300 343 308 304 308H197V0H98V729H321C404 729 466 712 507 677 548 642 569 590 569 519 569 473 558 435 537 405 516 374 485 353 444 342ZM197 648V389H321C368 389 404 400 428 422 453 444 465 476 465 519 465 562 453 594 428 615 404 637 368 648 321 648H197Z"/>
</g>
<g id="font_13_65">
<path transform="matrix(.001,0,0,.001,0,0)" d="M342 632 208 269H476L342 632ZM286 729H398L676 0H573L507 187H178L112 0H8L286 729Z"/>
</g>
<g id="font_13_71">
<path transform="matrix(.001,0,0,.001,0,0)" d="M595 104V300H434V381H693V68C655 41 613 20 567 6 521-7 472-14 420-14 306-14 217 19 152 85 88 152 56 245 56 364 56 483 88 575 152 642 217 709 306 742 420 742 467 742 512 736 555 725 598 713 638 696 674 673V568C637 599 599 622 558 638 517 653 473 661 428 661 339 661 272 636 227 586 182 537 160 463 160 364 160 265 182 191 227 142 272 92 339 67 428 67 463 67 494 70 521 76 548 82 573 91 595 104Z"/>
</g>
<g id="font_13_97">
<path transform="matrix(.001,0,0,.001,0,0)" d="M343 275C270 275 220 267 192 250 164 233 150 205 150 165 150 133 160 108 181 89 202 70 231 61 267 61 317 61 357 79 387 114 417 149 432 196 432 255V275H343ZM522 312V0H432V83C411 50 386 25 355 9 325-6 288-14 243-14 187-14 142 2 109 33 76 64 60 106 60 159 60 220 81 267 122 298 163 329 225 345 306 345H432V354C432 395 418 427 391 450 364 473 326 484 277 484 246 484 215 480 186 473 156 465 127 454 100 439V522C133 535 165 544 196 550 227 557 257 560 286 560 365 560 424 540 463 499 502 458 522 395 522 312Z"/>
</g>
<g id="font_13_110">
<path transform="matrix(.001,0,0,.001,0,0)" d="M549 330V0H459V327C459 379 449 418 429 443 408 469 378 482 338 482 289 482 251 467 223 436 195 405 181 362 181 309V0H91V547H181V462C202 495 228 519 257 536 286 552 320 560 358 560 421 560 468 540 500 501 533 462 549 405 549 330Z"/>
</g>
<g id="font_13_115">
<path transform="matrix(.001,0,0,.001,0,0)" d="M443 531V446C418 459 391 468 364 475 337 482 308 485 279 485 234 485 201 478 178 464 156 451 145 430 145 403 145 382 153 366 169 354 185 342 217 331 265 320L296 313C360 299 405 280 432 255 459 230 472 196 472 151 472 100 452 60 412 30 372 1 317-14 246-14 217-14 186-11 154-5 123 0 89 9 54 20V113C87 96 120 83 152 74 185 65 217 61 248 61 291 61 323 68 346 83 369 97 380 117 380 144 380 169 372 187 355 200 339 213 303 226 247 238L216 245C160 257 120 275 95 299 70 323 58 356 58 399 58 450 76 490 113 518 149 546 201 560 268 560 301 560 333 558 362 553 391 548 418 540 443 531Z"/>
</g>
<g id="font_13_117">
<path transform="matrix(.001,0,0,.001,0,0)" d="M85 216V547H175V219C175 168 185 129 205 103 225 77 255 64 296 64 345 64 383 79 411 110 439 141 453 184 453 237V547H543V0H453V84C431 51 406 26 377 10 348-6 315-14 277-14 214-14 167 5 134 44 101 83 85 141 85 216ZM311 560V560Z"/>
</g>
<g id="font_13_109">
<path transform="matrix(.001,0,0,.001,0,0)" d="M520 442C543 482 570 512 601 531 632 550 668 560 711 560 768 560 812 540 843 500 874 460 889 403 889 330V0H799V327C799 380 790 419 771 444 752 469 724 482 686 482 639 482 603 467 576 436 549 405 535 362 535 309V0H445V327C445 380 436 419 417 444 398 469 370 482 331 482 285 482 249 466 222 435 195 404 181 362 181 309V0H91V547H181V462C202 495 226 520 255 536 284 552 318 560 357 560 397 560 431 550 458 530 486 510 507 481 520 442Z"/>
</g>
<g id="font_14_48">
<path transform="matrix(.001,0,0,.001,0,0)" d="M318 34C368 34 405 61 430 116 455 171 467 253 467 364 467 475 455 557 430 612 405 667 368 694 318 694 268 694 231 667 206 612 181 557 169 475 169 364 169 253 181 171 206 116 231 61 268 34 318 34ZM318-14C239-14 177 19 132 85 88 152 66 245 66 364 66 483 88 576 132 643 177 709 239 742 318 742 397 742 459 709 503 643 548 576 570 483 570 364 570 245 548 152 503 85 459 19 397-14 318-14Z"/>
</g>
<g id="font_14_46">
<path transform="matrix(.001,0,0,.001,0,0)" d="M94 51C94 69 100 84 113 97 125 110 140 116 159 116 177 116 192 110 205 97 218 84 224 69 224 51 224 33 218 18 205 5 192-8 177-14 159-14 140-14 125-8 113 4 100 17 94 32 94 51Z"/>
</g>
<g id="font_14_50">
<path transform="matrix(.001,0,0,.001,0,0)" d="M128 555H73V685C108 704 143 718 178 728 213 737 248 742 282 742 358 742 418 724 462 687 506 650 528 600 528 537 528 466 478 380 378 281 371 274 365 268 361 264L177 80H481V170H538V0H68V53L289 274C338 323 373 367 394 408 415 449 425 492 425 537 425 586 412 625 386 652 361 680 326 694 281 694 234 694 198 682 173 659 148 636 133 602 128 555Z"/>
</g>
<g id="font_14_52">
<path transform="matrix(.001,0,0,.001,0,0)" d="M349 247V635L100 247H349ZM564 0H232V52H349V195H31V248L350 742H447V247H586V195H447V52H564V0Z"/>
</g>
<g id="font_14_54">
<path transform="matrix(.001,0,0,.001,0,0)" d="M327 34C373 34 408 51 433 84 458 118 470 167 470 230 470 293 458 342 433 375 408 409 373 426 327 426 280 426 245 410 221 377 196 344 184 297 184 236 184 171 196 121 221 86 246 51 281 34 327 34ZM168 401C190 426 215 444 243 456 271 468 303 474 338 474 411 474 468 452 510 409 552 365 573 305 573 230 573 156 550 97 505 52 460 8 399-14 323-14 241-14 178 17 133 78 89 139 67 227 67 341 67 468 93 567 146 637 198 707 272 742 367 742 393 742 420 740 448 735 477 730 506 723 535 713V593H480C476 626 463 651 442 668 421 685 393 694 357 694 294 694 247 670 216 622 185 574 169 500 168 401Z"/>
</g>
<g id="font_14_56">
<path transform="matrix(.001,0,0,.001,0,0)" d="M466 199C466 251 453 291 427 320 401 349 365 364 318 364 271 364 235 349 208 320 183 291 170 251 170 199 170 147 183 106 208 77 235 48 271 34 318 34 365 34 401 48 427 77 453 106 466 147 466 199ZM446 553C446 598 435 632 412 657 389 682 358 694 318 694 278 694 247 682 224 657 201 632 190 598 190 553 190 508 201 474 224 449 247 424 278 412 318 412 358 412 389 424 412 449 435 474 446 508 446 553ZM393 388C448 381 491 360 522 327 553 294 569 251 569 199 569 131 547 78 504 41 461 4 399-14 318-14 237-14 175 4 132 41 89 78 67 131 67 199 67 251 82 294 113 327 144 360 188 381 243 388 194 397 156 415 130 444 104 473 91 509 91 553 91 612 111 658 151 691 192 725 247 742 318 742 389 742 444 725 484 691 525 658 545 612 545 553 545 509 532 473 505 444 479 415 442 397 393 388Z"/>
</g>
<g id="font_14_49">
<path transform="matrix(.001,0,0,.001,0,0)" d="M142 0V52H269V658L122 563V627L300 742H367V52H494V0H142Z"/>
</g>
<g id="font_14_67">
<path transform="matrix(.001,0,0,.001,0,0)" d="M705 193C684 125 648 73 597 38 546 3 482-14 405-14 357-14 313-6 272 10 231 27 195 51 164 82 127 119 100 160 83 206 65 253 56 305 56 364 56 477 89 569 154 638 219 707 306 742 413 742 453 742 495 737 540 727 585 716 633 700 685 679V511H630C618 572 594 617 557 646 521 675 470 690 405 690 327 690 268 662 228 607 188 552 168 471 168 364 168 257 188 176 228 121 268 66 327 38 405 38 459 38 504 51 539 77 574 103 600 142 615 193H705Z"/>
</g>
<g id="font_14_69">
<path transform="matrix(.001,0,0,.001,0,0)" d="M55 0V52H148V677H55V729H642V567H582V669H247V425H486V516H546V274H486V365H247V60H590V162H650V0H55Z"/>
</g>
<g id="font_14_82">
<path transform="matrix(.001,0,0,.001,0,0)" d="M479 362C502 356 521 345 538 330 554 315 569 295 582 268L688 52H777V0H605L491 232C469 277 449 306 431 319 413 332 388 339 356 339H247V52H350V0H55V52H148V677H55V729H425C496 729 550 712 589 678 628 644 647 596 647 534 647 484 633 445 604 416 576 387 534 369 479 362ZM247 391H391C440 391 477 403 500 426 523 449 535 485 535 534 535 583 523 619 500 642 477 665 440 677 391 677H247V391Z"/>
</g>
<g id="font_15_76">
<path transform="matrix(.001,0,0,.001,0,0)" d="M47 0V59H140V670H47V729H422V670H328V67H615V182H681V0H47Z"/>
</g>
<g id="font_15_108">
<path transform="matrix(.001,0,0,.001,0,0)" d="M281 59H355V0H34V59H108V701H34V760H281V59Z"/>
</g>
<g id="font_15_97">
<path transform="matrix(.001,0,0,.001,0,0)" d="M551 319V59H625V0H378V66C355 39 330 18 302 5 274-8 242-14 206-14 153-14 112 0 83 28 55 57 41 98 41 151 41 209 61 253 102 282 143 311 205 325 287 325H378V356C378 398 368 429 348 449 328 469 297 479 256 479 221 479 195 472 176 458 157 444 144 421 136 388H81V500C112 511 144 520 177 525 210 530 245 533 282 533 375 533 443 516 486 481 529 447 551 393 551 319ZM378 163V267H313C281 267 256 258 239 241 222 223 213 198 213 165 213 132 219 108 231 91 244 75 263 67 289 67 316 67 337 76 354 93 370 111 378 134 378 163Z"/>
</g>
<g id="font_15_109">
<path transform="matrix(.001,0,0,.001,0,0)" d="M607 434C631 469 657 494 685 509 713 525 746 533 783 533 843 533 888 516 917 482 946 449 961 398 961 330V59H1035V0H726V59H788V304C788 369 783 410 773 427 763 444 745 452 718 452 687 452 663 440 646 417 629 393 621 359 621 316V59H683V0H386V59H448V304C448 369 443 410 433 427 423 444 405 452 378 452 347 452 323 440 306 417 289 393 281 359 281 316V59H343V0H34V59H108V460H34V519H281V446C301 476 324 498 350 512 376 526 407 533 443 533 485 533 519 525 546 509 572 493 592 468 607 434Z"/>
</g>
<g id="font_15_32">
</g>
<g id="font_15_40">
<path transform="matrix(.001,0,0,.001,0,0)" d="M421-156C311-115 229-57 175 19 121 95 94 189 94 302 94 415 121 508 174 583 227 658 310 717 421 760V701C370 670 333 623 310 562 287 501 276 414 276 302 276 190 287 103 310 42 333-19 370-66 421-97V-156Z"/>
</g>
<g id="font_15_82">
<path transform="matrix(.001,0,0,.001,0,0)" d="M531 356C560 352 584 342 604 327 624 312 641 291 656 262L762 59H837V0H597L481 220C458 266 439 295 423 307 408 320 386 326 358 326H328V59H422V0H47V59H140V670H47V729H463C548 729 613 712 659 678 705 644 728 596 728 533 728 482 712 442 679 413 646 384 597 365 531 356ZM328 385H392C437 385 472 397 497 422 522 447 534 482 534 528 534 574 522 609 497 633 472 658 437 670 392 670H328V385Z"/>
</g>
<g id="font_15_45">
<path transform="matrix(.001,0,0,.001,0,0)" d="M54 334H361V202H54V334Z"/>
</g>
<g id="font_15_115">
<path transform="matrix(.001,0,0,.001,0,0)" d="M47 15V160H102C107 121 121 92 146 71 170 51 203 41 245 41 280 41 307 47 326 59 345 72 354 89 354 112 354 133 348 149 336 160 324 171 301 181 267 190L196 208C142 221 103 240 79 265 55 290 43 324 43 366 43 423 63 465 102 492 141 519 201 533 282 533 313 533 345 530 380 525 415 520 453 513 495 502V371H440C437 406 425 433 402 451 380 469 348 478 306 478 271 478 244 472 226 461 208 450 199 433 199 412 199 395 204 381 215 371 225 360 244 352 271 345L342 327C410 310 457 288 483 263 509 238 522 202 522 157 522 98 501 55 459 27 417 0 352-14 264-14 232-14 198-12 162-7 125-2 87 5 47 15Z"/>
</g>
<g id="font_15_116">
<path transform="matrix(.001,0,0,.001,0,0)" d="M99 460H24V519H99V680H272V519H416V460H272V142C272 97 276 69 283 58 290 47 303 41 322 41 343 41 358 48 368 62 378 76 383 98 384 127H457C454 75 440 38 414 17 389-4 345-14 282-14 211-14 162-3 137 19 112 42 99 83 99 142V460Z"/>
</g>
<g id="font_15_114">
<path transform="matrix(.001,0,0,.001,0,0)" d="M537 525V370H482C480 398 472 419 459 432 446 445 428 452 403 452 365 452 335 435 313 402 292 369 281 323 281 264V59H375V0H34V59H108V460H29V519H281V427C298 463 320 490 348 507 376 524 410 533 450 533 460 533 472 532 487 531 502 530 518 528 537 525Z"/>
</g>
<g id="font_15_117">
<path transform="matrix(.001,0,0,.001,0,0)" d="M619 519V59H693V0H446V73C425 42 402 20 375 6 348-7 315-14 274-14 216-14 172 3 142 37 112 72 97 122 97 189V460H23V519H270V216C270 151 275 110 286 93 297 76 316 67 345 67 380 67 405 80 421 105 438 131 446 172 446 228V460H383V519H619Z"/>
</g>
<g id="font_15_99">
<path transform="matrix(.001,0,0,.001,0,0)" d="M564 162C551 103 526 58 488 29 450 0 398-14 332-14 239-14 168 10 117 58 66 105 41 173 41 260 41 346 66 413 116 461 166 509 236 533 325 533 361 533 398 530 435 523 472 516 509 506 547 492V348H492C487 392 474 425 454 446 433 467 404 478 367 478 319 478 285 462 264 429 244 396 234 340 234 260 234 181 244 125 264 91 283 58 316 41 361 41 396 41 423 51 444 72 465 93 478 123 483 162H564Z"/>
</g>
<g id="font_15_41">
<path transform="matrix(.001,0,0,.001,0,0)" d="M51-156V-97C102-66 139-19 162 42 185 103 196 190 196 302 196 414 185 501 162 562 139 623 102 670 51 701V760C162 717 244 658 297 583 351 508 378 415 378 302 378 189 351 95 296 19 242-57 160-115 51-156Z"/>
</g>
<g id="font_14_78">
<path transform="matrix(.001,0,0,.001,0,0)" d="M49 0V52H147V677H49V729H236L673 154V677H575V729H831V677H733V-14H674L207 600V52H305V0H49Z"/>
</g>
<g id="font_14_111">
<path transform="matrix(.001,0,0,.001,0,0)" d="M301 34C349 34 385 53 410 91 435 129 447 185 447 260 447 334 435 390 410 428 385 466 349 485 301 485 253 485 216 466 191 428 167 390 155 334 155 260 155 185 167 129 192 91 217 53 253 34 301 34ZM301-14C226-14 165 11 119 61 73 111 50 177 50 260 50 343 73 409 118 458 164 508 225 533 301 533 377 533 438 508 483 458 529 409 552 343 552 260 552 177 529 111 483 61 438 11 377-14 301-14Z"/>
</g>
<g id="font_14_110">
<path transform="matrix(.001,0,0,.001,0,0)" d="M41 0V52H122V467H36V519H212V427C229 462 250 488 276 506 303 524 334 533 369 533 426 533 469 517 496 484 523 451 536 400 536 330V52H616V0H368V52H446V302C446 365 438 409 422 432 407 456 379 468 340 468 298 468 266 453 245 422 223 391 212 347 212 289V52H290V0H41Z"/>
</g>
<g id="font_14_101">
<path transform="matrix(.001,0,0,.001,0,0)" d="M542 250H155V246C155 176 168 123 194 87 221 52 260 34 311 34 350 34 383 44 408 65 433 86 451 116 461 157H533C519 100 493 58 454 29 415 0 365-14 302-14 226-14 165 11 119 61 73 111 50 177 50 260 50 342 73 408 118 458 163 508 223 533 296 533 375 533 435 509 477 460 519 412 541 342 542 250ZM436 302C434 363 421 408 397 438 374 469 340 485 296 485 255 485 222 469 198 438 175 407 160 362 155 302H436Z"/>
</g>
<g id="font_14_83">
<path transform="matrix(.001,0,0,.001,0,0)" d="M93 35V201H149C150 146 166 105 197 78 228 51 274 38 336 38 394 38 438 49 468 72 499 95 514 129 514 173 514 208 505 235 486 254 468 273 429 291 370 309L274 338C204 359 155 386 126 417 98 448 84 492 84 547 84 609 106 657 150 691 194 725 256 742 335 742 369 742 406 738 446 731 487 724 530 713 575 699V544H520C515 595 497 632 468 655 439 678 396 690 337 690 286 690 246 679 219 658 192 637 179 607 179 567 179 532 189 505 209 485 230 465 273 445 338 426L428 399C494 379 541 354 569 323 598 292 612 251 612 199 612 128 589 75 544 40 499 4 431-14 342-14 302-14 261-10 219-2 178 6 136 18 93 35Z"/>
</g>
<g id="font_14_116">
<path transform="matrix(.001,0,0,.001,0,0)" d="M108 467H29V519H108V680H198V519H367V467H198V137C198 93 202 65 211 53 220 40 235 34 258 34 281 34 298 41 309 55 320 69 325 91 326 122H394C391 75 378 40 355 19 332-3 297-14 250-14 198-14 161-3 140 20 119 43 108 82 108 137V467Z"/>
</g>
<g id="font_14_97">
<path transform="matrix(.001,0,0,.001,0,0)" d="M398 163V273H282C237 273 204 263 183 244 161 225 150 195 150 156 150 120 161 91 183 70 205 49 235 38 273 38 310 38 340 50 363 73 386 96 398 126 398 163ZM488 324V52H568V0H398V56C378 32 355 14 329 3 303-8 273-14 238-14 180-14 134 1 101 32 67 63 50 104 50 156 50 209 69 251 108 281 147 310 201 325 272 325H398V361C398 400 386 431 362 452 338 474 304 485 261 485 226 485 197 477 176 460 155 444 141 420 136 388H90V493C121 506 152 516 181 523 210 530 239 533 267 533 339 533 394 515 431 479 469 444 488 392 488 324Z"/>
</g>
<clipPath id="clip_16">
<path transform="matrix(1,0,0,-1,0,373.08073)" d="M400.07814 58.44633H696.5156V335.64634H400.07814Z"/>
</clipPath>
<clipPath id="clip_17">
<path transform="matrix(1,0,0,-1,0,373.08073)" d="M400.07814 58.44633H696.5156V335.64634H400.07814Z"/>
</clipPath>
<clipPath id="clip_18">
<path transform="matrix(1,0,0,-1,0,373.08073)" d="M400.07814 58.44633H696.5156V335.64634H400.07814Z"/>
</clipPath>
<clipPath id="clip_19">
<path transform="matrix(1,0,0,-1,0,373.08073)" d="M400.07814 58.44633H696.5156V335.64634H400.07814Z"/>
</clipPath>
<clipPath id="clip_20">
<path transform="matrix(1,0,0,-1,0,373.08073)" d="M400.07814 58.44633H696.5156V335.64634H400.07814Z"/>
</clipPath>
<clipPath id="clip_21">
<path transform="matrix(1,0,0,-1,0,373.08073)" d="M400.07814 58.44633H696.5156V335.64634H400.07814Z"/>
</clipPath>
<clipPath id="clip_22">
<path transform="matrix(1,0,0,-1,0,373.08073)" d="M400.07814 58.44633H696.5156V335.64634H400.07814Z"/>
</clipPath>
<clipPath id="clip_23">
<path transform="matrix(1,0,0,-1,0,373.08073)" d="M400.07814 58.44633H696.5156V335.64634H400.07814Z"/>
</clipPath>
<clipPath id="clip_24">
<path transform="matrix(1,0,0,-1,0,373.08073)" d="M400.07814 58.44633H696.5156V335.64634H400.07814Z"/>
</clipPath>
<clipPath id="clip_25">
<path transform="matrix(1,0,0,-1,0,373.08073)" d="M400.07814 58.44633H696.5156V335.64634H400.07814Z"/>
</clipPath>
<clipPath id="clip_26">
<path transform="matrix(1,0,0,-1,0,373.08073)" d="M400.07814 58.44633H696.5156V335.64634H400.07814Z"/>
</clipPath>
<clipPath id="clip_27">
<path transform="matrix(1,0,0,-1,0,373.08073)" d="M400.07814 58.44633H696.5156V335.64634H400.07814Z"/>
</clipPath>
<g id="font_15_77">
<path transform="matrix(.001,0,0,.001,0,0)" d="M42 0V59H135V670H42V729H343L551 261 760 729H1060V670H967V59H1060V0H685V59H778V615L552 107H428L203 615V59H296V0H42Z"/>
</g>
<g id="font_15_105">
<path transform="matrix(.001,0,0,.001,0,0)" d="M92 666C92 693 101 715 119 732 137 751 159 760 186 760 212 760 234 751 251 732 270 715 279 693 279 666 279 640 270 618 251 600 234 582 212 573 186 573 159 573 137 582 119 600 101 618 92 640 92 666ZM281 59H355V0H34V59H108V460H34V519H281V59Z"/>
</g>
<clipPath id="clip_28">
<path transform="matrix(1,0,0,-1,0,373.08073)" d="M726.15939 58.44633H1022.59689V335.64634H726.15939Z"/>
</clipPath>
<clipPath id="clip_29">
<path transform="matrix(1,0,0,-1,0,373.08073)" d="M739.6338 58.44633H757.4126 739.6338Z"/>
</clipPath>
<clipPath id="clip_30">
<path transform="matrix(1,0,0,-1,0,373.08073)" d="M726.15939 58.44633H1022.59689V335.64634H726.15939Z"/>
</clipPath>
<clipPath id="clip_31">
<path transform="matrix(1,0,0,-1,0,373.08073)" d="M786.42007 58.44633H804.1988 786.42007Z"/>
</clipPath>
<clipPath id="clip_32">
<path transform="matrix(1,0,0,-1,0,373.08073)" d="M726.15939 58.44633H1022.59689V335.64634H726.15939Z"/>
</clipPath>
<clipPath id="clip_33">
<path transform="matrix(1,0,0,-1,0,373.08073)" d="M833.20626 58.44633H850.985 833.20626Z"/>
</clipPath>
<clipPath id="clip_34">
<path transform="matrix(1,0,0,-1,0,373.08073)" d="M726.15939 58.44633H1022.59689V335.64634H726.15939Z"/>
</clipPath>
<clipPath id="clip_35">
<path transform="matrix(1,0,0,-1,0,373.08073)" d="M879.9925 58.44633H897.77127 879.9925Z"/>
</clipPath>
<clipPath id="clip_36">
<path transform="matrix(1,0,0,-1,0,373.08073)" d="M726.15939 58.44633H1022.59689V335.64634H726.15939Z"/>
</clipPath>
<clipPath id="clip_37">
<path transform="matrix(1,0,0,-1,0,373.08073)" d="M926.7787 58.44633H944.55746 926.7787Z"/>
</clipPath>
<clipPath id="clip_38">
<path transform="matrix(1,0,0,-1,0,373.08073)" d="M726.15939 58.44633H1022.59689V335.64634H726.15939Z"/>
</clipPath>
<clipPath id="clip_39">
<path transform="matrix(1,0,0,-1,0,373.08073)" d="M973.56497 58.44633H991.3437 973.56497Z"/>
</clipPath>
<clipPath id="clip_40">
<path transform="matrix(1,0,0,-1,0,373.08073)" d="M726.15939 58.44633H1022.59689V335.64634H726.15939Z"/>
</clipPath>
<clipPath id="clip_41">
<path transform="matrix(1,0,0,-1,0,373.08073)" d="M726.15939 58.44633H1022.59689V335.64634H726.15939Z"/>
</clipPath>
<clipPath id="clip_42">
<path transform="matrix(1,0,0,-1,0,373.08073)" d="M726.15939 58.44633H1022.59689V335.64634H726.15939Z"/>
</clipPath>
<clipPath id="clip_43">
<path transform="matrix(1,0,0,-1,0,373.08073)" d="M726.15939 58.44633H1022.59689V335.64634H726.15939Z"/>
</clipPath>
<clipPath id="clip_44">
<path transform="matrix(1,0,0,-1,0,373.08073)" d="M726.15939 58.44633H1022.59689V335.64634H726.15939Z"/>
</clipPath>
<clipPath id="clip_45">
<path transform="matrix(1,0,0,-1,0,373.08073)" d="M726.15939 58.44633H1022.59689V335.64634H726.15939Z"/>
</clipPath>
<g id="font_15_81">
<path transform="matrix(.001,0,0,.001,0,0)" d="M432-14C309-12 214 22 145 88 76 155 42 247 42 364 42 482 77 574 146 641 216 708 312 742 435 742 558 742 654 709 724 642 793 575 828 482 828 364 828 260 801 176 748 112 694 47 618 7 519-8 536-27 557-40 582-48 607-56 639-60 678-60H703V-180H689C627-180 575-167 534-140 493-113 459-71 432-14ZM435 45C497 45 543 71 574 124 604 176 619 256 619 364 619 472 604 552 574 604 543 657 497 683 435 683 373 683 327 657 296 604 266 551 251 471 251 364 251 257 266 177 296 124 327 71 373 45 435 45Z"/>
</g>
<g id="font_15_119">
<path transform="matrix(.001,0,0,.001,0,0)" d="M539 519 657 173 755 460H687V519H881V460H820L663 0H544L434 325 323 0H205L48 460H-9V519H285V460H224L320 179 436 519H539Z"/>
</g>
<g id="font_15_101">
<path transform="matrix(.001,0,0,.001,0,0)" d="M401 293C401 362 395 410 382 437 369 464 348 478 317 478 287 478 266 465 253 438 240 411 234 365 234 302V293H401ZM591 235H234V231C234 164 244 115 264 85 284 56 317 41 362 41 399 41 430 51 453 71 476 91 490 120 497 157H578C564 98 536 55 495 27 453 0 395-14 320-14 230-14 161 10 113 57 65 104 41 172 41 260 41 346 66 413 115 461 164 509 232 533 320 533 406 533 472 508 518 457 563 406 588 332 591 235Z"/>
</g>
<g id="font_15_110">
<path transform="matrix(.001,0,0,.001,0,0)" d="M34 0V59H108V460H34V519H281V446C302 477 325 499 352 513 379 526 412 533 453 533 512 533 556 516 585 481 615 447 630 397 630 330V59H704V0H394V59H457V335C457 379 451 409 440 426 429 443 409 452 382 452 347 452 322 439 305 414 289 388 281 347 281 292V59H344V0H34Z"/>
</g>
<g id="font_15_51">
<path transform="matrix(.001,0,0,.001,0,0)" d="M86 708C129 719 170 728 211 733 251 739 290 742 329 742 417 742 484 726 531 695 578 664 602 619 602 560 602 516 589 480 562 453 535 426 495 407 443 398 506 388 554 366 585 333 616 300 632 254 632 197 632 129 605 77 551 40 497 4 419-14 317-14 278-14 239-11 198-4 157 2 115 12 70 25V185H129C132 139 147 104 172 79 197 55 233 43 278 43 327 43 366 57 393 84 420 111 433 150 433 201 433 254 419 294 391 323 363 352 323 366 271 366H239V425H264C312 425 348 436 372 458 396 480 408 513 408 557 408 598 397 630 374 652 351 674 319 685 277 685 238 685 208 674 186 653 163 632 150 602 145 562H86V708Z"/>
</g>
<g id="font_15_46">
<path transform="matrix(.001,0,0,.001,0,0)" d="M81 79C81 104 90 126 108 145 127 163 149 172 174 172 199 172 221 163 240 145 258 126 267 104 267 79 267 54 258 32 240 13 221-5 199-14 174-14 149-14 127-5 108 13 90 32 81 54 81 79Z"/>
</g>
<g id="font_15_53">
<path transform="matrix(.001,0,0,.001,0,0)" d="M564 729V601H174V441C195 458 219 470 246 479 272 487 300 491 329 491 419 491 490 468 542 423 594 378 620 316 620 238 620 159 594 97 542 52 490 8 417-14 323-14 284-14 244-11 205-4 166 2 125 12 82 26V185H141C143 137 155 101 178 78 201 55 235 43 280 43 328 43 363 59 386 91 409 123 421 172 421 238 421 303 410 351 387 383 364 415 330 431 284 431 259 431 237 426 218 416 199 405 181 389 164 368H115V729H564Z"/>
</g>
<clipPath id="clip_46">
<path transform="matrix(1,0,0,-1,0,373.08073)" d="M859.1125 310.74986H889.1125V321.24986H859.1125Z"/>
</clipPath>
<g id="font_14_32">
</g>
<g id="font_14_40">
<path transform="matrix(.001,0,0,.001,0,0)" d="M319-156C240-121 180-64 140 13 99 90 79 186 79 302 79 418 99 514 140 591 180 668 240 725 319 760V712C269 677 233 629 211 566 189 503 178 415 178 302 178 189 189 101 211 38 233-25 269-73 319-108V-156Z"/>
</g>
<g id="font_14_98">
<path transform="matrix(.001,0,0,.001,0,0)" d="M115 52V708H29V760H205V438C222 471 245 495 272 510 299 525 333 533 373 533 437 533 489 508 529 458 570 407 590 341 590 260 590 179 570 113 529 62 489 11 437-14 373-14 333-14 299-6 272 9 245 24 222 48 205 81V0H29V52H115ZM205 234C205 171 217 124 241 91 265 58 300 42 345 42 391 42 426 60 449 97 473 134 485 188 485 260 485 332 473 386 449 422 426 459 391 477 345 477 300 477 265 461 241 428 217 395 205 347 205 285V234Z"/>
</g>
<g id="font_14_115">
<path transform="matrix(.001,0,0,.001,0,0)" d="M56 29V150H108C109 111 121 82 144 63 167 44 201 34 246 34 287 34 317 42 338 57 359 72 370 94 370 123 370 146 362 164 347 178 332 192 299 207 249 223L184 245C139 260 107 278 87 299 67 320 57 348 57 381 57 428 74 466 109 493 144 520 193 533 254 533 281 533 310 529 340 522 371 515 402 505 434 491V378H382C381 411 369 438 347 457 325 476 295 485 257 485 219 485 190 478 171 465 152 452 142 432 142 405 142 383 149 365 164 352 179 339 208 326 252 312L323 290C372 275 408 255 429 232 451 209 462 180 462 144 462 95 443 56 405 28 368 0 316-14 250-14 217-14 184-10 152-3 120 4 88 14 56 29Z"/>
</g>
<g id="font_14_41">
<path transform="matrix(.001,0,0,.001,0,0)" d="M71-156V-108C121-73 157-25 179 38 201 101 212 189 212 302 212 415 201 503 179 566 157 629 121 677 71 712V760C150 725 210 668 250 591 291 514 311 418 311 302 311 186 291 90 250 13 210-64 150-121 71-156Z"/>
</g>
</defs>
<path transform="matrix(1,0,0,-1,0,373.08073)" d="M0 0H1029.7969V373.08073H0Z" fill="#ffffff"/>
<path transform="matrix(1,0,0,-1,0,373.08073)" d="M73.99687 58.44633H370.4344V335.64634H73.99687Z" fill="#ffffff"/>
<g clip-path="url(#clip_0)">
<path transform="matrix(1,0,0,-1,0,373.08073)" d="M87.471309 58.44633H105.25007 87.471309Z" fill="#93acce"/>
<path transform="matrix(1,0,0,-1,0,373.08073)" stroke-width="1.2" stroke-linecap="butt" stroke-miterlimit="10" stroke-linejoin="miter" fill="none" stroke="#000000" d="M87.471309 58.44633H105.25007 87.471309Z"/>
</g>
<g clip-path="url(#clip_1)">
<path transform="matrix(1,0,0,-1,0,373.08073)" d="M134.25753 58.44633H152.03629V59.000734H134.25753Z" fill="#93acce"/>
<path transform="matrix(1,0,0,-1,0,373.08073)" stroke-width="1.2" stroke-linecap="butt" stroke-miterlimit="10" stroke-linejoin="miter" fill="none" stroke="#000000" d="M134.25753 58.44633H152.03629V59.000734H134.25753Z"/>
</g>
<g clip-path="url(#clip_2)">
<path transform="matrix(1,0,0,-1,0,373.08073)" d="M181.04375 58.44633H198.82251V295.45234H181.04375Z" fill="#93acce"/>
<path transform="matrix(1,0,0,-1,0,373.08073)" stroke-width="1.2" stroke-linecap="butt" stroke-miterlimit="10" stroke-linejoin="miter" fill="none" stroke="#000000" d="M181.04375 58.44633H198.82251V295.45234H181.04375Z"/>
</g>
<g clip-path="url(#clip_3)">
<path transform="matrix(1,0,0,-1,0,373.08073)" d="M227.82997 58.44633H245.60874 227.82997Z" fill="#93acce"/>
<path transform="matrix(1,0,0,-1,0,373.08073)" stroke-width="1.2" stroke-linecap="butt" stroke-miterlimit="10" stroke-linejoin="miter" fill="none" stroke="#000000" d="M227.82997 58.44633H245.60874 227.82997Z"/>
</g>
<g clip-path="url(#clip_4)">
<path transform="matrix(1,0,0,-1,0,373.08073)" d="M274.61619 58.44633H292.39497V289.07673H274.61619Z" fill="#93acce"/>
<path transform="matrix(1,0,0,-1,0,373.08073)" stroke-width="1.2" stroke-linecap="butt" stroke-miterlimit="10" stroke-linejoin="miter" fill="none" stroke="#000000" d="M274.61619 58.44633H292.39497V289.07673H274.61619Z"/>
</g>
<g clip-path="url(#clip_5)">
<path transform="matrix(1,0,0,-1,0,373.08073)" d="M321.4024 58.44633H339.18119 321.4024Z" fill="#93acce"/>
<path transform="matrix(1,0,0,-1,0,373.08073)" stroke-width="1.2" stroke-linecap="butt" stroke-miterlimit="10" stroke-linejoin="miter" fill="none" stroke="#000000" d="M321.4024 58.44633H339.18119 321.4024Z"/>
</g>
<g clip-path="url(#clip_6)">
<path transform="matrix(1,0,0,-1,0,373.08073)" d="M105.25007 58.44633H123.02883 105.25007Z" fill="#daa113"/>
<path transform="matrix(1,0,0,-1,0,373.08073)" stroke-width="1.2" stroke-linecap="butt" stroke-miterlimit="10" stroke-linejoin="miter" fill="none" stroke="#000000" d="M105.25007 58.44633H123.02883 105.25007Z"/>
</g>
<g clip-path="url(#clip_7)">
<path transform="matrix(1,0,0,-1,0,373.08073)" d="M152.03629 58.44633H169.81507 152.03629Z" fill="#daa113"/>
<path transform="matrix(1,0,0,-1,0,373.08073)" stroke-width="1.2" stroke-linecap="butt" stroke-miterlimit="10" stroke-linejoin="miter" fill="none" stroke="#000000" d="M152.03629 58.44633H169.81507 152.03629Z"/>
</g>
<g clip-path="url(#clip_8)">
<path transform="matrix(1,0,0,-1,0,373.08073)" d="M198.82251 58.44633H216.60128V296.00675H198.82251Z" fill="#daa113"/>
<path transform="matrix(1,0,0,-1,0,373.08073)" stroke-width="1.2" stroke-linecap="butt" stroke-miterlimit="10" stroke-linejoin="miter" fill="none" stroke="#000000" d="M198.82251 58.44633H216.60128V296.00675H198.82251Z"/>
</g>
<g clip-path="url(#clip_9)">
<path transform="matrix(1,0,0,-1,0,373.08073)" d="M245.60874 58.44633H263.3875 245.60874Z" fill="#daa113"/>
<path transform="matrix(1,0,0,-1,0,373.08073)" stroke-width="1.2" stroke-linecap="butt" stroke-miterlimit="10" stroke-linejoin="miter" fill="none" stroke="#000000" d="M245.60874 58.44633H263.3875 245.60874Z"/>
</g>
<g clip-path="url(#clip_10)">
<path transform="matrix(1,0,0,-1,0,373.08073)" d="M292.39497 58.44633H310.17375V186.78993H292.39497Z" fill="#daa113"/>
<path transform="matrix(1,0,0,-1,0,373.08073)" stroke-width="1.2" stroke-linecap="butt" stroke-miterlimit="10" stroke-linejoin="miter" fill="none" stroke="#000000" d="M292.39497 58.44633H310.17375V186.78993H292.39497Z"/>
</g>
<g clip-path="url(#clip_11)">
<path transform="matrix(1,0,0,-1,0,373.08073)" d="M339.18119 58.44633H356.95994 339.18119Z" fill="#daa113"/>
<path transform="matrix(1,0,0,-1,0,373.08073)" stroke-width="1.2" stroke-linecap="butt" stroke-miterlimit="10" stroke-linejoin="miter" fill="none" stroke="#000000" d="M339.18119 58.44633H356.95994 339.18119Z"/>
</g>
<path transform="matrix(1,0,0,-1,0,373.08073)" d="M105.25007 58.44633V54.94633"/>
<path transform="matrix(1,0,0,-1,0,373.08073)" stroke-width=".8" stroke-linecap="butt" stroke-linejoin="round" fill="none" stroke="#000000" d="M105.25007 58.44633V54.94633"/>
<use data-text="Z" xlink:href="#font_12_90" transform="matrix(15.3208889,-12.855753,-12.855753,-15.3208889,69.71663,359.94859)"/>
<use data-text="C" xlink:href="#font_13_67" transform="matrix(10.724622,-8.999027,-8.999027,-10.724622,82.14069,353.43977)"/>
<use data-text="o" xlink:href="#font_13_111" transform="matrix(10.724622,-8.999027,-8.999027,-10.724622,89.62908,347.15626)"/>
<use data-text="T" xlink:href="#font_13_84" transform="matrix(10.724622,-8.999027,-8.999027,-10.724622,96.19058,341.6505)"/>
<path transform="matrix(1,0,0,-1,0,373.08073)" d="M152.03629 58.44633V54.94633"/>
<path transform="matrix(1,0,0,-1,0,373.08073)" stroke-width=".8" stroke-linecap="butt" stroke-linejoin="round" fill="none" stroke="#000000" d="M152.03629 58.44633V54.94633"/>
<use data-text="Z" xlink:href="#font_12_90" transform="matrix(15.3208889,-12.855753,-12.855753,-15.3208889,117.2689,359.3058)"/>
<use data-text="t" xlink:href="#font_13_116" transform="matrix(10.724622,-8.999027,-8.999027,-10.724622,129.69297,352.79698)"/>
<use data-text="o" xlink:href="#font_13_111" transform="matrix(10.724622,-8.999027,-8.999027,-10.724622,133.89798,349.26856)"/>
<use data-text="o" xlink:href="#font_13_111" transform="matrix(10.724622,-8.999027,-8.999027,-10.724622,140.45948,343.7628)"/>
<use data-text="l" xlink:href="#font_13_108" transform="matrix(10.724622,-8.999027,-8.999027,-10.724622,147.02098,338.25706)"/>
<path transform="matrix(1,0,0,-1,0,373.08073)" d="M198.82251 58.44633V54.94633"/>
<path transform="matrix(1,0,0,-1,0,373.08073)" stroke-width=".8" stroke-linecap="butt" stroke-linejoin="round" fill="none" stroke="#000000" d="M198.82251 58.44633V54.94633"/>
<use data-text="Z" xlink:href="#font_12_90" transform="matrix(15.3208889,-12.855753,-12.855753,-15.3208889,170.94953,353.5207)"/>
<use data-text="t" xlink:href="#font_13_116" transform="matrix(10.724622,-8.999027,-8.999027,-10.724622,183.3736,347.01188)"/>
<use data-text="w" xlink:href="#font_13_119" transform="matrix(10.724622,-8.999027,-8.999027,-10.724622,187.57862,343.48347)"/>
<path transform="matrix(1,0,0,-1,0,373.08073)" d="M245.60874 58.44633V54.94633"/>
<path transform="matrix(1,0,0,-1,0,373.08073)" stroke-width=".8" stroke-linecap="butt" stroke-linejoin="round" fill="none" stroke="#000000" d="M245.60874 58.44633V54.94633"/>
<use data-text="Z" xlink:href="#font_12_90" transform="matrix(15.3208889,-12.855753,-12.855753,-15.3208889,208.54322,361.23414)"/>
<use data-text="R" xlink:href="#font_13_82" transform="matrix(10.724622,-8.999027,-8.999027,-10.724622,220.96729,354.7253)"/>
<use data-text="A" xlink:href="#font_13_65" transform="matrix(10.724622,-8.999027,-8.999027,-10.724622,227.88278,348.92253)"/>
<use data-text="G" xlink:href="#font_13_71" transform="matrix(10.724622,-8.999027,-8.999027,-10.724622,235.2193,342.76646)"/>
<path transform="matrix(1,0,0,-1,0,373.08073)" d="M292.39497 58.44633V54.94633"/>
<path transform="matrix(1,0,0,-1,0,373.08073)" stroke-width=".8" stroke-linecap="butt" stroke-linejoin="round" fill="none" stroke="#000000" d="M292.39497 58.44633V54.94633"/>
<use data-text="Z" xlink:href="#font_12_90" transform="matrix(15.3208889,-12.855753,-12.855753,-15.3208889,259.15965,358.0202)"/>
<use data-text="a" xlink:href="#font_13_97" transform="matrix(10.724622,-8.999027,-8.999027,-10.724622,271.5837,351.51139)"/>
<use data-text="n" xlink:href="#font_13_110" transform="matrix(10.724622,-8.999027,-8.999027,-10.724622,278.15568,345.99687)"/>
<use data-text="s" xlink:href="#font_13_115" transform="matrix(10.724622,-8.999027,-8.999027,-10.724622,284.95283,340.29338)"/>
<path transform="matrix(1,0,0,-1,0,373.08073)" d="M339.18119 58.44633V54.94633"/>
<path transform="matrix(1,0,0,-1,0,373.08073)" stroke-width=".8" stroke-linecap="butt" stroke-linejoin="round" fill="none" stroke="#000000" d="M339.18119 58.44633V54.94633"/>
<use data-text="Z" xlink:href="#font_12_90" transform="matrix(15.3208889,-12.855753,-12.855753,-15.3208889,301.3496,361.87693)"/>
<use data-text="s" xlink:href="#font_13_115" transform="matrix(10.724622,-8.999027,-8.999027,-10.724622,313.77369,355.3681)"/>
<use data-text="u" xlink:href="#font_13_117" transform="matrix(10.724622,-8.999027,-8.999027,-10.724622,319.36119,350.67967)"/>
<use data-text="m" xlink:href="#font_13_109" transform="matrix(10.724622,-8.999027,-8.999027,-10.724622,326.15834,344.97618)"/>
<path transform="matrix(1,0,0,-1,0,373.08073)" d="M73.99687 58.44633H70.49687"/>
<path transform="matrix(1,0,0,-1,0,373.08073)" stroke-width=".8" stroke-linecap="butt" stroke-linejoin="round" fill="none" stroke="#000000" d="M73.99687 58.44633H70.49687"/>
<use data-text="0" xlink:href="#font_14_48" transform="matrix(20,0,0,-20,35.2,322.23207)"/>
<use data-text="." xlink:href="#font_14_46" transform="matrix(20,0,0,-20,47.914144,322.23207)"/>
<use data-text="0" xlink:href="#font_14_48" transform="matrix(20,0,0,-20,54.276098,322.23207)"/>
<path transform="matrix(1,0,0,-1,0,373.08073)" d="M73.99687 113.88633H70.49687"/>
<path transform="matrix(1,0,0,-1,0,373.08073)" stroke-width=".8" stroke-linecap="butt" stroke-linejoin="round" fill="none" stroke="#000000" d="M73.99687 113.88633H70.49687"/>
<use data-text="0" xlink:href="#font_14_48" transform="matrix(20,0,0,-20,35.2,266.79206)"/>
<use data-text="." xlink:href="#font_14_46" transform="matrix(20,0,0,-20,47.914144,266.79206)"/>
<use data-text="2" xlink:href="#font_14_50" transform="matrix(20,0,0,-20,54.276098,266.79206)"/>
<path transform="matrix(1,0,0,-1,0,373.08073)" d="M73.99687 169.32633H70.49687"/>
<path transform="matrix(1,0,0,-1,0,373.08073)" stroke-width=".8" stroke-linecap="butt" stroke-linejoin="round" fill="none" stroke="#000000" d="M73.99687 169.32633H70.49687"/>
<use data-text="0" xlink:href="#font_14_48" transform="matrix(20,0,0,-20,35.2,211.35205)"/>
<use data-text="." xlink:href="#font_14_46" transform="matrix(20,0,0,-20,47.914144,211.35205)"/>
<use data-text="4" xlink:href="#font_14_52" transform="matrix(20,0,0,-20,54.276098,211.35205)"/>
<path transform="matrix(1,0,0,-1,0,373.08073)" d="M73.99687 224.76633H70.49687"/>
<path transform="matrix(1,0,0,-1,0,373.08073)" stroke-width=".8" stroke-linecap="butt" stroke-linejoin="round" fill="none" stroke="#000000" d="M73.99687 224.76633H70.49687"/>
<use data-text="0" xlink:href="#font_14_48" transform="matrix(20,0,0,-20,35.2,155.91205)"/>
<use data-text="." xlink:href="#font_14_46" transform="matrix(20,0,0,-20,47.914144,155.91205)"/>
<use data-text="6" xlink:href="#font_14_54" transform="matrix(20,0,0,-20,54.276098,155.91205)"/>
<path transform="matrix(1,0,0,-1,0,373.08073)" d="M73.99687 280.20634H70.49687"/>
<path transform="matrix(1,0,0,-1,0,373.08073)" stroke-width=".8" stroke-linecap="butt" stroke-linejoin="round" fill="none" stroke="#000000" d="M73.99687 280.20634H70.49687"/>
<use data-text="0" xlink:href="#font_14_48" transform="matrix(20,0,0,-20,35.2,100.472049)"/>
<use data-text="." xlink:href="#font_14_46" transform="matrix(20,0,0,-20,47.914144,100.472049)"/>
<use data-text="8" xlink:href="#font_14_56" transform="matrix(20,0,0,-20,54.276098,100.472049)"/>
<path transform="matrix(1,0,0,-1,0,373.08073)" d="M73.99687 335.64634H70.49687"/>
<path transform="matrix(1,0,0,-1,0,373.08073)" stroke-width=".8" stroke-linecap="butt" stroke-linejoin="round" fill="none" stroke="#000000" d="M73.99687 335.64634H70.49687"/>
<use data-text="1" xlink:href="#font_14_49" transform="matrix(20,0,0,-20,35.2,45.032045)"/>
<use data-text="." xlink:href="#font_14_46" transform="matrix(20,0,0,-20,47.914144,45.032045)"/>
<use data-text="0" xlink:href="#font_14_48" transform="matrix(20,0,0,-20,54.276098,45.032045)"/>
<use data-text="C" xlink:href="#font_14_67" transform="matrix(0,-24,-24,-0,25.434376,203.01096)"/>
<use data-text="E" xlink:href="#font_14_69" transform="matrix(0,-24,-24,-0,25.434376,184.65486)"/>
<use data-text="R" xlink:href="#font_14_82" transform="matrix(0,-24,-24,-0,25.434376,167.13877)"/>
<path transform="matrix(1,0,0,-1,0,373.08073)" stroke-width="1.8" stroke-linecap="square" stroke-miterlimit="10" stroke-linejoin="miter" fill="none" stroke="#000000" d="M73.99687 58.44633V335.64634"/>
<path transform="matrix(1,0,0,-1,0,373.08073)" stroke-width="1.8" stroke-linecap="square" stroke-miterlimit="10" stroke-linejoin="miter" fill="none" stroke="#000000" d="M370.4344 58.44633V335.64634"/>
<path transform="matrix(1,0,0,-1,0,373.08073)" stroke-width="1.8" stroke-linecap="square" stroke-miterlimit="10" stroke-linejoin="miter" fill="none" stroke="#000000" d="M73.99687 58.44633H370.4344"/>
<path transform="matrix(1,0,0,-1,0,373.08073)" stroke-width="1.8" stroke-linecap="square" stroke-miterlimit="10" stroke-linejoin="miter" fill="none" stroke="#000000" d="M73.99687 335.64634H370.4344"/>
<use data-text="L" xlink:href="#font_15_76" transform="matrix(24,0,0,-24,110.27031,25.434388)"/>
<use data-text="l" xlink:href="#font_15_108" transform="matrix(24,0,0,-24,127.14231,25.434388)"/>
<use data-text="a" xlink:href="#font_15_97" transform="matrix(24,0,0,-24,136.27013,25.434388)"/>
<use data-text="m" xlink:href="#font_15_109" transform="matrix(24,0,0,-24,151.8182,25.434388)"/>
<use data-text="a" xlink:href="#font_15_97" transform="matrix(24,0,0,-24,177.20632,25.434388)"/>
<use data-text=" " xlink:href="#font_15_32" transform="matrix(24,0,0,-24,192.75441,25.434388)"/>
<use data-text="(" xlink:href="#font_15_40" transform="matrix(24,0,0,-24,201.11032,25.434388)"/>
<use data-text="R" xlink:href="#font_15_82" transform="matrix(24,0,0,-24,212.46622,25.434388)"/>
<use data-text="-" xlink:href="#font_15_45" transform="matrix(24,0,0,-24,232.41803,25.434388)"/>
<use data-text="s" xlink:href="#font_15_115" transform="matrix(24,0,0,-24,242.38585,25.434388)"/>
<use data-text="t" xlink:href="#font_15_116" transform="matrix(24,0,0,-24,255.90175,25.434388)"/>
<use data-text="r" xlink:href="#font_15_114" transform="matrix(24,0,0,-24,266.99757,25.434388)"/>
<use data-text="u" xlink:href="#font_15_117" transform="matrix(24,0,0,-24,279.64167,25.434388)"/>
<use data-text="c" xlink:href="#font_15_99" transform="matrix(24,0,0,-24,297.09358,25.434388)"/>
<use data-text="t" xlink:href="#font_15_116" transform="matrix(24,0,0,-24,311.70564,25.434388)"/>
<use data-text=")" xlink:href="#font_15_41" transform="matrix(24,0,0,-24,322.80146,25.434388)"/>
<g>
<path transform="matrix(1,0,0,-1,0,373.08073)" d="M85.19688 274.84635H179.81876C181.95209 274.84635 183.01876 275.913 183.01876 278.04634V324.44633C183.01876 326.57966 181.95209 327.64634 179.81876 327.64634H85.19688C83.063549 327.64634 81.99687 326.57966 81.99687 324.44633V278.04634C81.99687 275.913 83.063549 274.84635 85.19688 274.84635Z" fill="#ffffff" fill-opacity=".8"/>
<path transform="matrix(1,0,0,-1,0,373.08073)" stroke-width="1" stroke-linecap="butt" stroke-miterlimit="10" stroke-linejoin="miter" fill="none" stroke="#cccccc" stroke-opacity=".8" d="M85.19688 274.84635H179.81876C181.95209 274.84635 183.01876 275.913 183.01876 278.04634V324.44633C183.01876 326.57966 181.95209 327.64634 179.81876 327.64634H85.19688C83.063549 327.64634 81.99687 326.57966 81.99687 324.44633V278.04634C81.99687 275.913 83.063549 274.84635 85.19688 274.84635Z"/>
</g>
<path transform="matrix(1,0,0,-1,0,373.08073)" d="M88.39687 309.0901H120.39687V320.29008H88.39687Z" fill="#93acce"/>
<path transform="matrix(1,0,0,-1,0,373.08073)" stroke-width="1.2" stroke-linecap="butt" stroke-miterlimit="10" stroke-linejoin="miter" fill="none" stroke="#000000" d="M88.39687 309.0901H120.39687V320.29008H88.39687Z"/>
<use data-text="N" xlink:href="#font_14_78" transform="matrix(16,0,0,-16,133.19687,63.99063)"/>
<use data-text="o" xlink:href="#font_14_111" transform="matrix(16,0,0,-16,147.19687,63.99063)"/>
<use data-text="n" xlink:href="#font_14_110" transform="matrix(16,0,0,-16,156.83669,63.99063)"/>
<use data-text="e" xlink:href="#font_14_101" transform="matrix(16,0,0,-16,167.1485,63.99063)"/>
<path transform="matrix(1,0,0,-1,0,373.08073)" d="M88.39687 285.0901H120.39687V296.29008H88.39687Z" fill="#daa113"/>
<path transform="matrix(1,0,0,-1,0,373.08073)" stroke-width="1.2" stroke-linecap="butt" stroke-miterlimit="10" stroke-linejoin="miter" fill="none" stroke="#000000" d="M88.39687 285.0901H120.39687V296.29008H88.39687Z"/>
<use data-text="S" xlink:href="#font_14_83" transform="matrix(16,0,0,-16,133.19687,87.99063)"/>
<use data-text="t" xlink:href="#font_14_116" transform="matrix(16,0,0,-16,144.16469,87.99063)"/>
<use data-text="a" xlink:href="#font_14_97" transform="matrix(16,0,0,-16,150.60449,87.99063)"/>
<use data-text="R" xlink:href="#font_14_82" transform="matrix(16,0,0,-16,160.14832,87.99063)"/>
<path transform="matrix(1,0,0,-1,0,373.08073)" d="M400.07814 58.44633H696.5156V335.64634H400.07814Z" fill="#ffffff"/>
<g clip-path="url(#clip_16)">
<path transform="matrix(1,0,0,-1,0,373.08073)" d="M413.55256 58.44633H431.33134 413.55256Z" fill="#93acce"/>
<path transform="matrix(1,0,0,-1,0,373.08073)" stroke-width="1.2" stroke-linecap="butt" stroke-miterlimit="10" stroke-linejoin="miter" fill="none" stroke="#000000" d="M413.55256 58.44633H431.33134 413.55256Z"/>
</g>
<g clip-path="url(#clip_17)">
<path transform="matrix(1,0,0,-1,0,373.08073)" d="M460.33879 58.44633H478.11756V59.000734H460.33879Z" fill="#93acce"/>
<path transform="matrix(1,0,0,-1,0,373.08073)" stroke-width="1.2" stroke-linecap="butt" stroke-miterlimit="10" stroke-linejoin="miter" fill="none" stroke="#000000" d="M460.33879 58.44633H478.11756V59.000734H460.33879Z"/>
</g>
<g clip-path="url(#clip_18)">
<path transform="matrix(1,0,0,-1,0,373.08073)" d="M507.125 58.44633H524.90377V287.96794H507.125Z" fill="#93acce"/>
<path transform="matrix(1,0,0,-1,0,373.08073)" stroke-width="1.2" stroke-linecap="butt" stroke-miterlimit="10" stroke-linejoin="miter" fill="none" stroke="#000000" d="M507.125 58.44633H524.90377V287.96794H507.125Z"/>
</g>
<g clip-path="url(#clip_19)">
<path transform="matrix(1,0,0,-1,0,373.08073)" d="M553.9112 58.44633H571.69 553.9112Z" fill="#93acce"/>
<path transform="matrix(1,0,0,-1,0,373.08073)" stroke-width="1.2" stroke-linecap="butt" stroke-miterlimit="10" stroke-linejoin="miter" fill="none" stroke="#000000" d="M553.9112 58.44633H571.69 553.9112Z"/>
</g>
<g clip-path="url(#clip_20)">
<path transform="matrix(1,0,0,-1,0,373.08073)" d="M600.69747 58.44633H618.4762V279.37474H600.69747Z" fill="#93acce"/>
<path transform="matrix(1,0,0,-1,0,373.08073)" stroke-width="1.2" stroke-linecap="butt" stroke-miterlimit="10" stroke-linejoin="miter" fill="none" stroke="#000000" d="M600.69747 58.44633H618.4762V279.37474H600.69747Z"/>
</g>
<g clip-path="url(#clip_21)">
<path transform="matrix(1,0,0,-1,0,373.08073)" d="M647.48367 58.44633H665.26248 647.48367Z" fill="#93acce"/>
<path transform="matrix(1,0,0,-1,0,373.08073)" stroke-width="1.2" stroke-linecap="butt" stroke-miterlimit="10" stroke-linejoin="miter" fill="none" stroke="#000000" d="M647.48367 58.44633H665.26248 647.48367Z"/>
</g>
<g clip-path="url(#clip_22)">
<path transform="matrix(1,0,0,-1,0,373.08073)" d="M431.33134 58.44633H449.11009 431.33134Z" fill="#daa113"/>
<path transform="matrix(1,0,0,-1,0,373.08073)" stroke-width="1.2" stroke-linecap="butt" stroke-miterlimit="10" stroke-linejoin="miter" fill="none" stroke="#000000" d="M431.33134 58.44633H449.11009 431.33134Z"/>
</g>
<g clip-path="url(#clip_23)">
<path transform="matrix(1,0,0,-1,0,373.08073)" d="M478.11756 58.44633H495.8963V59.000734H478.11756Z" fill="#daa113"/>
<path transform="matrix(1,0,0,-1,0,373.08073)" stroke-width="1.2" stroke-linecap="butt" stroke-miterlimit="10" stroke-linejoin="miter" fill="none" stroke="#000000" d="M478.11756 58.44633H495.8963V59.000734H478.11756Z"/>
</g>
<g clip-path="url(#clip_24)">
<path transform="matrix(1,0,0,-1,0,373.08073)" d="M524.90377 58.44633H542.68258V287.69075H524.90377Z" fill="#daa113"/>
<path transform="matrix(1,0,0,-1,0,373.08073)" stroke-width="1.2" stroke-linecap="butt" stroke-miterlimit="10" stroke-linejoin="miter" fill="none" stroke="#000000" d="M524.90377 58.44633H542.68258V287.69075H524.90377Z"/>
</g>
<g clip-path="url(#clip_25)">
<path transform="matrix(1,0,0,-1,0,373.08073)" d="M571.69 58.44633H589.46878 571.69Z" fill="#daa113"/>
<path transform="matrix(1,0,0,-1,0,373.08073)" stroke-width="1.2" stroke-linecap="butt" stroke-miterlimit="10" stroke-linejoin="miter" fill="none" stroke="#000000" d="M571.69 58.44633H589.46878 571.69Z"/>
</g>
<g clip-path="url(#clip_26)">
<path transform="matrix(1,0,0,-1,0,373.08073)" d="M618.4762 58.44633H636.25497V240.01233H618.4762Z" fill="#daa113"/>
<path transform="matrix(1,0,0,-1,0,373.08073)" stroke-width="1.2" stroke-linecap="butt" stroke-miterlimit="10" stroke-linejoin="miter" fill="none" stroke="#000000" d="M618.4762 58.44633H636.25497V240.01233H618.4762Z"/>
</g>
<g clip-path="url(#clip_27)">
<path transform="matrix(1,0,0,-1,0,373.08073)" d="M665.26248 58.44633H683.0412 665.26248Z" fill="#daa113"/>
<path transform="matrix(1,0,0,-1,0,373.08073)" stroke-width="1.2" stroke-linecap="butt" stroke-miterlimit="10" stroke-linejoin="miter" fill="none" stroke="#000000" d="M665.26248 58.44633H683.0412 665.26248Z"/>
</g>
<path transform="matrix(1,0,0,-1,0,373.08073)" d="M431.33134 58.44633V54.94633"/>
<path transform="matrix(1,0,0,-1,0,373.08073)" stroke-width=".8" stroke-linecap="butt" stroke-linejoin="round" fill="none" stroke="#000000" d="M431.33134 58.44633V54.94633"/>
<use data-text="Z" xlink:href="#font_12_90" transform="matrix(15.3208889,-12.855753,-12.855753,-15.3208889,395.79789,359.94859)"/>
<use data-text="C" xlink:href="#font_13_67" transform="matrix(10.724622,-8.999027,-8.999027,-10.724622,408.22196,353.43977)"/>
<use data-text="o" xlink:href="#font_13_111" transform="matrix(10.724622,-8.999027,-8.999027,-10.724622,415.71034,347.15626)"/>
<use data-text="T" xlink:href="#font_13_84" transform="matrix(10.724622,-8.999027,-8.999027,-10.724622,422.27183,341.6505)"/>
<path transform="matrix(1,0,0,-1,0,373.08073)" d="M478.11756 58.44633V54.94633"/>
<path transform="matrix(1,0,0,-1,0,373.08073)" stroke-width=".8" stroke-linecap="butt" stroke-linejoin="round" fill="none" stroke="#000000" d="M478.11756 58.44633V54.94633"/>
<use data-text="Z" xlink:href="#font_12_90" transform="matrix(15.3208889,-12.855753,-12.855753,-15.3208889,443.35017,359.3058)"/>
<use data-text="t" xlink:href="#font_13_116" transform="matrix(10.724622,-8.999027,-8.999027,-10.724622,455.77424,352.79698)"/>
<use data-text="o" xlink:href="#font_13_111" transform="matrix(10.724622,-8.999027,-8.999027,-10.724622,459.97926,349.26856)"/>
<use data-text="o" xlink:href="#font_13_111" transform="matrix(10.724622,-8.999027,-8.999027,-10.724622,466.54075,343.7628)"/>
<use data-text="l" xlink:href="#font_13_108" transform="matrix(10.724622,-8.999027,-8.999027,-10.724622,473.10224,338.25706)"/>
<path transform="matrix(1,0,0,-1,0,373.08073)" d="M524.90377 58.44633V54.94633"/>
<path transform="matrix(1,0,0,-1,0,373.08073)" stroke-width=".8" stroke-linecap="butt" stroke-linejoin="round" fill="none" stroke="#000000" d="M524.90377 58.44633V54.94633"/>
<use data-text="Z" xlink:href="#font_12_90" transform="matrix(15.3208889,-12.855753,-12.855753,-15.3208889,497.03077,353.5207)"/>
<use data-text="t" xlink:href="#font_13_116" transform="matrix(10.724622,-8.999027,-8.999027,-10.724622,509.45484,347.01188)"/>
<use data-text="w" xlink:href="#font_13_119" transform="matrix(10.724622,-8.999027,-8.999027,-10.724622,513.65988,343.48347)"/>
<path transform="matrix(1,0,0,-1,0,373.08073)" d="M571.69 58.44633V54.94633"/>
<path transform="matrix(1,0,0,-1,0,373.08073)" stroke-width=".8" stroke-linecap="butt" stroke-linejoin="round" fill="none" stroke="#000000" d="M571.69 58.44633V54.94633"/>
<use data-text="Z" xlink:href="#font_12_90" transform="matrix(15.3208889,-12.855753,-12.855753,-15.3208889,534.62448,361.23414)"/>
<use data-text="R" xlink:href="#font_13_82" transform="matrix(10.724622,-8.999027,-8.999027,-10.724622,547.0485,354.7253)"/>
<use data-text="A" xlink:href="#font_13_65" transform="matrix(10.724622,-8.999027,-8.999027,-10.724622,553.964,348.92253)"/>
<use data-text="G" xlink:href="#font_13_71" transform="matrix(10.724622,-8.999027,-8.999027,-10.724622,561.30056,342.76646)"/>
<path transform="matrix(1,0,0,-1,0,373.08073)" d="M618.4762 58.44633V54.94633"/>
<path transform="matrix(1,0,0,-1,0,373.08073)" stroke-width=".8" stroke-linecap="butt" stroke-linejoin="round" fill="none" stroke="#000000" d="M618.4762 58.44633V54.94633"/>
<use data-text="Z" xlink:href="#font_12_90" transform="matrix(15.3208889,-12.855753,-12.855753,-15.3208889,585.2409,358.0202)"/>
<use data-text="a" xlink:href="#font_13_97" transform="matrix(10.724622,-8.999027,-8.999027,-10.724622,597.665,351.51139)"/>
<use data-text="n" xlink:href="#font_13_110" transform="matrix(10.724622,-8.999027,-8.999027,-10.724622,604.23696,345.99687)"/>
<use data-text="s" xlink:href="#font_13_115" transform="matrix(10.724622,-8.999027,-8.999027,-10.724622,611.0341,340.29338)"/>
<path transform="matrix(1,0,0,-1,0,373.08073)" d="M665.26248 58.44633V54.94633"/>
<path transform="matrix(1,0,0,-1,0,373.08073)" stroke-width=".8" stroke-linecap="butt" stroke-linejoin="round" fill="none" stroke="#000000" d="M665.26248 58.44633V54.94633"/>
<use data-text="Z" xlink:href="#font_12_90" transform="matrix(15.3208889,-12.855753,-12.855753,-15.3208889,627.43087,361.87693)"/>
<use data-text="s" xlink:href="#font_13_115" transform="matrix(10.724622,-8.999027,-8.999027,-10.724622,639.8549,355.3681)"/>
<use data-text="u" xlink:href="#font_13_117" transform="matrix(10.724622,-8.999027,-8.999027,-10.724622,645.4424,350.67967)"/>
<use data-text="m" xlink:href="#font_13_109" transform="matrix(10.724622,-8.999027,-8.999027,-10.724622,652.23959,344.97618)"/>
<path transform="matrix(1,0,0,-1,0,373.08073)" stroke-width="1.8" stroke-linecap="square" stroke-miterlimit="10" stroke-linejoin="miter" fill="none" stroke="#000000" d="M400.07814 58.44633V335.64634"/>
<path transform="matrix(1,0,0,-1,0,373.08073)" stroke-width="1.8" stroke-linecap="square" stroke-miterlimit="10" stroke-linejoin="miter" fill="none" stroke="#000000" d="M696.5156 58.44633V335.64634"/>
<path transform="matrix(1,0,0,-1,0,373.08073)" stroke-width="1.8" stroke-linecap="square" stroke-miterlimit="10" stroke-linejoin="miter" fill="none" stroke="#000000" d="M400.07814 58.44633H696.5156"/>
<path transform="matrix(1,0,0,-1,0,373.08073)" stroke-width="1.8" stroke-linecap="square" stroke-miterlimit="10" stroke-linejoin="miter" fill="none" stroke="#000000" d="M400.07814 335.64634H696.5156"/>
<use data-text="M" xlink:href="#font_15_77" transform="matrix(24,0,0,-24,428.78907,25.434388)"/>
<use data-text="i" xlink:href="#font_15_105" transform="matrix(24,0,0,-24,455.35316,25.434388)"/>
<use data-text="s" xlink:href="#font_15_115" transform="matrix(24,0,0,-24,464.48097,25.434388)"/>
<use data-text="t" xlink:href="#font_15_116" transform="matrix(24,0,0,-24,477.9969,25.434388)"/>
<use data-text="r" xlink:href="#font_15_114" transform="matrix(24,0,0,-24,489.09269,25.434388)"/>
<use data-text="a" xlink:href="#font_15_97" transform="matrix(24,0,0,-24,501.7368,25.434388)"/>
<use data-text="l" xlink:href="#font_15_108" transform="matrix(24,0,0,-24,517.2849,25.434388)"/>
<use data-text=" " xlink:href="#font_15_32" transform="matrix(24,0,0,-24,526.4127,25.434388)"/>
<use data-text="(" xlink:href="#font_15_40" transform="matrix(24,0,0,-24,534.7686,25.434388)"/>
<use data-text="R" xlink:href="#font_15_82" transform="matrix(24,0,0,-24,546.1245,25.434388)"/>
<use data-text="-" xlink:href="#font_15_45" transform="matrix(24,0,0,-24,566.0763,25.434388)"/>
<use data-text="s" xlink:href="#font_15_115" transform="matrix(24,0,0,-24,576.0441,25.434388)"/>
<use data-text="t" xlink:href="#font_15_116" transform="matrix(24,0,0,-24,589.56008,25.434388)"/>
<use data-text="r" xlink:href="#font_15_114" transform="matrix(24,0,0,-24,600.6559,25.434388)"/>
<use data-text="u" xlink:href="#font_15_117" transform="matrix(24,0,0,-24,613.2999,25.434388)"/>
<use data-text="c" xlink:href="#font_15_99" transform="matrix(24,0,0,-24,630.75186,25.434388)"/>
<use data-text="t" xlink:href="#font_15_116" transform="matrix(24,0,0,-24,645.36398,25.434388)"/>
<use data-text=")" xlink:href="#font_15_41" transform="matrix(24,0,0,-24,656.4598,25.434388)"/>
<g>
<path transform="matrix(1,0,0,-1,0,373.08073)" d="M411.27815 274.84635H505.9C508.03334 274.84635 509.1 275.913 509.1 278.04634V324.44633C509.1 326.57966 508.03334 327.64634 505.9 327.64634H411.27815C409.1448 327.64634 408.07814 326.57966 408.07814 324.44633V278.04634C408.07814 275.913 409.1448 274.84635 411.27815 274.84635Z" fill="#ffffff" fill-opacity=".8"/>
<path transform="matrix(1,0,0,-1,0,373.08073)" stroke-width="1" stroke-linecap="butt" stroke-miterlimit="10" stroke-linejoin="miter" fill="none" stroke="#cccccc" stroke-opacity=".8" d="M411.27815 274.84635H505.9C508.03334 274.84635 509.1 275.913 509.1 278.04634V324.44633C509.1 326.57966 508.03334 327.64634 505.9 327.64634H411.27815C409.1448 327.64634 408.07814 326.57966 408.07814 324.44633V278.04634C408.07814 275.913 409.1448 274.84635 411.27815 274.84635Z"/>
</g>
<path transform="matrix(1,0,0,-1,0,373.08073)" d="M414.47813 309.0901H446.47813V320.29008H414.47813Z" fill="#93acce"/>
<path transform="matrix(1,0,0,-1,0,373.08073)" stroke-width="1.2" stroke-linecap="butt" stroke-miterlimit="10" stroke-linejoin="miter" fill="none" stroke="#000000" d="M414.47813 309.0901H446.47813V320.29008H414.47813Z"/>
<use data-text="N" xlink:href="#font_14_78" transform="matrix(16,0,0,-16,459.27815,63.99063)"/>
<use data-text="o" xlink:href="#font_14_111" transform="matrix(16,0,0,-16,473.27815,63.99063)"/>
<use data-text="n" xlink:href="#font_14_110" transform="matrix(16,0,0,-16,482.91795,63.99063)"/>
<use data-text="e" xlink:href="#font_14_101" transform="matrix(16,0,0,-16,493.22978,63.99063)"/>
<path transform="matrix(1,0,0,-1,0,373.08073)" d="M414.47813 285.0901H446.47813V296.29008H414.47813Z" fill="#daa113"/>
<path transform="matrix(1,0,0,-1,0,373.08073)" stroke-width="1.2" stroke-linecap="butt" stroke-miterlimit="10" stroke-linejoin="miter" fill="none" stroke="#000000" d="M414.47813 285.0901H446.47813V296.29008H414.47813Z"/>
<use data-text="S" xlink:href="#font_14_83" transform="matrix(16,0,0,-16,459.27815,87.99063)"/>
<use data-text="t" xlink:href="#font_14_116" transform="matrix(16,0,0,-16,470.24595,87.99063)"/>
<use data-text="a" xlink:href="#font_14_97" transform="matrix(16,0,0,-16,476.68577,87.99063)"/>
<use data-text="R" xlink:href="#font_14_82" transform="matrix(16,0,0,-16,486.22959,87.99063)"/>
<path transform="matrix(1,0,0,-1,0,373.08073)" d="M726.15939 58.44633H1022.59689V335.64634H726.15939Z" fill="#ffffff"/>
<g clip-path="url(#clip_28)">
<g clip-path="url(#clip_29)">
<path transform="matrix(1,0,0,-1,720,360)" d="M0 0H72V72H0Z" fill="#f5f5f5"/>
<path transform="matrix(1,0,0,-1,720,360)" d="M-36 36 36 108M-30 30 42 102M-24 24 48 96M-18 18 54 90M-12 12 60 84M-6 6 66 78M0 0 72 72M6-6 78 66M12-12 84 60M18-18 90 54M24-24 96 48M30-30 102 42M36-36 108 36" fill="#888888"/>
<path transform="matrix(1,0,0,-1,720,360)" stroke-width="1" stroke-linecap="butt" stroke-miterlimit="10" stroke-linejoin="miter" fill="none" stroke="#888888" d="M-36 36 36 108M-30 30 42 102M-24 24 48 96M-18 18 54 90M-12 12 60 84M-6 6 66 78M0 0 72 72M6-6 78 66M12-12 84 60M18-18 90 54M24-24 96 48M30-30 102 42M36-36 108 36"/>
</g>
<path transform="matrix(1,0,0,-1,0,373.08073)" stroke-width="1.2" stroke-linecap="butt" stroke-dasharray="4.44,1.92" stroke-miterlimit="10" stroke-linejoin="miter" fill="none" stroke="#888888" d="M739.6338 58.44633H757.4126 739.6338Z"/>
</g>
<g clip-path="url(#clip_30)">
<g clip-path="url(#clip_31)">
<path transform="matrix(1,0,0,-1,720,360)" d="M0 0H72V72H0Z" fill="#f5f5f5"/>
<path transform="matrix(1,0,0,-1,720,360)" d="M-36 36 36 108M-30 30 42 102M-24 24 48 96M-18 18 54 90M-12 12 60 84M-6 6 66 78M0 0 72 72M6-6 78 66M12-12 84 60M18-18 90 54M24-24 96 48M30-30 102 42M36-36 108 36" fill="#888888"/>
<path transform="matrix(1,0,0,-1,720,360)" stroke-width="1" stroke-linecap="butt" stroke-miterlimit="10" stroke-linejoin="miter" fill="none" stroke="#888888" d="M-36 36 36 108M-30 30 42 102M-24 24 48 96M-18 18 54 90M-12 12 60 84M-6 6 66 78M0 0 72 72M6-6 78 66M12-12 84 60M18-18 90 54M24-24 96 48M30-30 102 42M36-36 108 36"/>
<path transform="matrix(1,0,0,-1,792,360)" d="M0 0H72V72H0Z" fill="#f5f5f5"/>
<path transform="matrix(1,0,0,-1,792,360)" d="M-36 36 36 108M-30 30 42 102M-24 24 48 96M-18 18 54 90M-12 12 60 84M-6 6 66 78M0 0 72 72M6-6 78 66M12-12 84 60M18-18 90 54M24-24 96 48M30-30 102 42M36-36 108 36" fill="#888888"/>
<path transform="matrix(1,0,0,-1,792,360)" stroke-width="1" stroke-linecap="butt" stroke-miterlimit="10" stroke-linejoin="miter" fill="none" stroke="#888888" d="M-36 36 36 108M-30 30 42 102M-24 24 48 96M-18 18 54 90M-12 12 60 84M-6 6 66 78M0 0 72 72M6-6 78 66M12-12 84 60M18-18 90 54M24-24 96 48M30-30 102 42M36-36 108 36"/>
</g>
<path transform="matrix(1,0,0,-1,0,373.08073)" stroke-width="1.2" stroke-linecap="butt" stroke-dasharray="4.44,1.92" stroke-miterlimit="10" stroke-linejoin="miter" fill="none" stroke="#888888" d="M786.42007 58.44633H804.1988 786.42007Z"/>
</g>
<g clip-path="url(#clip_32)">
<g clip-path="url(#clip_33)">
<path transform="matrix(1,0,0,-1,792,360)" d="M0 0H72V72H0Z" fill="#f5f5f5"/>
<path transform="matrix(1,0,0,-1,792,360)" d="M-36 36 36 108M-30 30 42 102M-24 24 48 96M-18 18 54 90M-12 12 60 84M-6 6 66 78M0 0 72 72M6-6 78 66M12-12 84 60M18-18 90 54M24-24 96 48M30-30 102 42M36-36 108 36" fill="#888888"/>
<path transform="matrix(1,0,0,-1,792,360)" stroke-width="1" stroke-linecap="butt" stroke-miterlimit="10" stroke-linejoin="miter" fill="none" stroke="#888888" d="M-36 36 36 108M-30 30 42 102M-24 24 48 96M-18 18 54 90M-12 12 60 84M-6 6 66 78M0 0 72 72M6-6 78 66M12-12 84 60M18-18 90 54M24-24 96 48M30-30 102 42M36-36 108 36"/>
</g>
<path transform="matrix(1,0,0,-1,0,373.08073)" stroke-width="1.2" stroke-linecap="butt" stroke-dasharray="4.44,1.92" stroke-miterlimit="10" stroke-linejoin="miter" fill="none" stroke="#888888" d="M833.20626 58.44633H850.985 833.20626Z"/>
</g>
<g clip-path="url(#clip_34)">
<g clip-path="url(#clip_35)">
<path transform="matrix(1,0,0,-1,864,360)" d="M0 0H72V72H0Z" fill="#f5f5f5"/>
<path transform="matrix(1,0,0,-1,864,360)" d="M-36 36 36 108M-30 30 42 102M-24 24 48 96M-18 18 54 90M-12 12 60 84M-6 6 66 78M0 0 72 72M6-6 78 66M12-12 84 60M18-18 90 54M24-24 96 48M30-30 102 42M36-36 108 36" fill="#888888"/>
<path transform="matrix(1,0,0,-1,864,360)" stroke-width="1" stroke-linecap="butt" stroke-miterlimit="10" stroke-linejoin="miter" fill="none" stroke="#888888" d="M-36 36 36 108M-30 30 42 102M-24 24 48 96M-18 18 54 90M-12 12 60 84M-6 6 66 78M0 0 72 72M6-6 78 66M12-12 84 60M18-18 90 54M24-24 96 48M30-30 102 42M36-36 108 36"/>
</g>
<path transform="matrix(1,0,0,-1,0,373.08073)" stroke-width="1.2" stroke-linecap="butt" stroke-dasharray="4.44,1.92" stroke-miterlimit="10" stroke-linejoin="miter" fill="none" stroke="#888888" d="M879.9925 58.44633H897.77127 879.9925Z"/>
</g>
<g clip-path="url(#clip_36)">
<g clip-path="url(#clip_37)">
<path transform="matrix(1,0,0,-1,864,360)" d="M0 0H72V72H0Z" fill="#f5f5f5"/>
<path transform="matrix(1,0,0,-1,864,360)" d="M-36 36 36 108M-30 30 42 102M-24 24 48 96M-18 18 54 90M-12 12 60 84M-6 6 66 78M0 0 72 72M6-6 78 66M12-12 84 60M18-18 90 54M24-24 96 48M30-30 102 42M36-36 108 36" fill="#888888"/>
<path transform="matrix(1,0,0,-1,864,360)" stroke-width="1" stroke-linecap="butt" stroke-miterlimit="10" stroke-linejoin="miter" fill="none" stroke="#888888" d="M-36 36 36 108M-30 30 42 102M-24 24 48 96M-18 18 54 90M-12 12 60 84M-6 6 66 78M0 0 72 72M6-6 78 66M12-12 84 60M18-18 90 54M24-24 96 48M30-30 102 42M36-36 108 36"/>
<path transform="matrix(1,0,0,-1,936,360)" d="M0 0H72V72H0Z" fill="#f5f5f5"/>
<path transform="matrix(1,0,0,-1,936,360)" d="M-36 36 36 108M-30 30 42 102M-24 24 48 96M-18 18 54 90M-12 12 60 84M-6 6 66 78M0 0 72 72M6-6 78 66M12-12 84 60M18-18 90 54M24-24 96 48M30-30 102 42M36-36 108 36" fill="#888888"/>
<path transform="matrix(1,0,0,-1,936,360)" stroke-width="1" stroke-linecap="butt" stroke-miterlimit="10" stroke-linejoin="miter" fill="none" stroke="#888888" d="M-36 36 36 108M-30 30 42 102M-24 24 48 96M-18 18 54 90M-12 12 60 84M-6 6 66 78M0 0 72 72M6-6 78 66M12-12 84 60M18-18 90 54M24-24 96 48M30-30 102 42M36-36 108 36"/>
</g>
<path transform="matrix(1,0,0,-1,0,373.08073)" stroke-width="1.2" stroke-linecap="butt" stroke-dasharray="4.44,1.92" stroke-miterlimit="10" stroke-linejoin="miter" fill="none" stroke="#888888" d="M926.7787 58.44633H944.55746 926.7787Z"/>
</g>
<g clip-path="url(#clip_38)">
<g clip-path="url(#clip_39)">
<path transform="matrix(1,0,0,-1,936,360)" d="M0 0H72V72H0Z" fill="#f5f5f5"/>
<path transform="matrix(1,0,0,-1,936,360)" d="M-36 36 36 108M-30 30 42 102M-24 24 48 96M-18 18 54 90M-12 12 60 84M-6 6 66 78M0 0 72 72M6-6 78 66M12-12 84 60M18-18 90 54M24-24 96 48M30-30 102 42M36-36 108 36" fill="#888888"/>
<path transform="matrix(1,0,0,-1,936,360)" stroke-width="1" stroke-linecap="butt" stroke-miterlimit="10" stroke-linejoin="miter" fill="none" stroke="#888888" d="M-36 36 36 108M-30 30 42 102M-24 24 48 96M-18 18 54 90M-12 12 60 84M-6 6 66 78M0 0 72 72M6-6 78 66M12-12 84 60M18-18 90 54M24-24 96 48M30-30 102 42M36-36 108 36"/>
</g>
<path transform="matrix(1,0,0,-1,0,373.08073)" stroke-width="1.2" stroke-linecap="butt" stroke-dasharray="4.44,1.92" stroke-miterlimit="10" stroke-linejoin="miter" fill="none" stroke="#888888" d="M973.56497 58.44633H991.3437 973.56497Z"/>
</g>
<g clip-path="url(#clip_40)">
<path transform="matrix(1,0,0,-1,0,373.08073)" d="M757.4126 58.44633H775.19137V69.53433H757.4126Z" fill="#daa113"/>
<path transform="matrix(1,0,0,-1,0,373.08073)" stroke-width="1.2" stroke-linecap="butt" stroke-miterlimit="10" stroke-linejoin="miter" fill="none" stroke="#000000" d="M757.4126 58.44633H775.19137V69.53433H757.4126Z"/>
</g>
<g clip-path="url(#clip_41)">
<path transform="matrix(1,0,0,-1,0,373.08073)" d="M804.1988 58.44633H821.97756 804.1988Z" fill="#daa113"/>
<path transform="matrix(1,0,0,-1,0,373.08073)" stroke-width="1.2" stroke-linecap="butt" stroke-miterlimit="10" stroke-linejoin="miter" fill="none" stroke="#000000" d="M804.1988 58.44633H821.97756 804.1988Z"/>
</g>
<g clip-path="url(#clip_42)">
<path transform="matrix(1,0,0,-1,0,373.08073)" d="M850.985 58.44633H868.7638V185.68114H850.985Z" fill="#daa113"/>
<path transform="matrix(1,0,0,-1,0,373.08073)" stroke-width="1.2" stroke-linecap="butt" stroke-miterlimit="10" stroke-linejoin="miter" fill="none" stroke="#000000" d="M850.985 58.44633H868.7638V185.68114H850.985Z"/>
</g>
<g clip-path="url(#clip_43)">
<path transform="matrix(1,0,0,-1,0,373.08073)" d="M897.77127 58.44633H915.55 897.77127Z" fill="#daa113"/>
<path transform="matrix(1,0,0,-1,0,373.08073)" stroke-width="1.2" stroke-linecap="butt" stroke-miterlimit="10" stroke-linejoin="miter" fill="none" stroke="#000000" d="M897.77127 58.44633H915.55 897.77127Z"/>
</g>
<g clip-path="url(#clip_44)">
<path transform="matrix(1,0,0,-1,0,373.08073)" d="M944.55746 58.44633H962.33627V239.45793H944.55746Z" fill="#daa113"/>
<path transform="matrix(1,0,0,-1,0,373.08073)" stroke-width="1.2" stroke-linecap="butt" stroke-miterlimit="10" stroke-linejoin="miter" fill="none" stroke="#000000" d="M944.55746 58.44633H962.33627V239.45793H944.55746Z"/>
</g>
<g clip-path="url(#clip_45)">
<path transform="matrix(1,0,0,-1,0,373.08073)" d="M991.3437 58.44633H1009.12246V66.20793H991.3437Z" fill="#daa113"/>
<path transform="matrix(1,0,0,-1,0,373.08073)" stroke-width="1.2" stroke-linecap="butt" stroke-miterlimit="10" stroke-linejoin="miter" fill="none" stroke="#000000" d="M991.3437 58.44633H1009.12246V66.20793H991.3437Z"/>
</g>
<path transform="matrix(1,0,0,-1,0,373.08073)" d="M757.4126 58.44633V54.94633"/>
<path transform="matrix(1,0,0,-1,0,373.08073)" stroke-width=".8" stroke-linecap="butt" stroke-linejoin="round" fill="none" stroke="#000000" d="M757.4126 58.44633V54.94633"/>
<use data-text="Z" xlink:href="#font_12_90" transform="matrix(15.3208889,-12.855753,-12.855753,-15.3208889,721.87918,359.94859)"/>
<use data-text="C" xlink:href="#font_13_67" transform="matrix(10.724622,-8.999027,-8.999027,-10.724622,734.3032,353.43977)"/>
<use data-text="o" xlink:href="#font_13_111" transform="matrix(10.724622,-8.999027,-8.999027,-10.724622,741.7916,347.15626)"/>
<use data-text="T" xlink:href="#font_13_84" transform="matrix(10.724622,-8.999027,-8.999027,-10.724622,748.3531,341.6505)"/>
<path transform="matrix(1,0,0,-1,0,373.08073)" d="M804.1988 58.44633V54.94633"/>
<path transform="matrix(1,0,0,-1,0,373.08073)" stroke-width=".8" stroke-linecap="butt" stroke-linejoin="round" fill="none" stroke="#000000" d="M804.1988 58.44633V54.94633"/>
<use data-text="Z" xlink:href="#font_12_90" transform="matrix(15.3208889,-12.855753,-12.855753,-15.3208889,769.4314,359.3058)"/>
<use data-text="t" xlink:href="#font_13_116" transform="matrix(10.724622,-8.999027,-8.999027,-10.724622,781.85549,352.79698)"/>
<use data-text="o" xlink:href="#font_13_111" transform="matrix(10.724622,-8.999027,-8.999027,-10.724622,786.0605,349.26856)"/>
<use data-text="o" xlink:href="#font_13_111" transform="matrix(10.724622,-8.999027,-8.999027,-10.724622,792.62197,343.7628)"/>
<use data-text="l" xlink:href="#font_13_108" transform="matrix(10.724622,-8.999027,-8.999027,-10.724622,799.1835,338.25706)"/>
<path transform="matrix(1,0,0,-1,0,373.08073)" d="M850.985 58.44633V54.94633"/>
<path transform="matrix(1,0,0,-1,0,373.08073)" stroke-width=".8" stroke-linecap="butt" stroke-linejoin="round" fill="none" stroke="#000000" d="M850.985 58.44633V54.94633"/>
<use data-text="Z" xlink:href="#font_12_90" transform="matrix(15.3208889,-12.855753,-12.855753,-15.3208889,823.112,353.5207)"/>
<use data-text="t" xlink:href="#font_13_116" transform="matrix(10.724622,-8.999027,-8.999027,-10.724622,835.5361,347.01188)"/>
<use data-text="w" xlink:href="#font_13_119" transform="matrix(10.724622,-8.999027,-8.999027,-10.724622,839.7411,343.48347)"/>
<path transform="matrix(1,0,0,-1,0,373.08073)" d="M897.77127 58.44633V54.94633"/>
<path transform="matrix(1,0,0,-1,0,373.08073)" stroke-width=".8" stroke-linecap="butt" stroke-linejoin="round" fill="none" stroke="#000000" d="M897.77127 58.44633V54.94633"/>
<use data-text="Z" xlink:href="#font_12_90" transform="matrix(15.3208889,-12.855753,-12.855753,-15.3208889,860.7057,361.23414)"/>
<use data-text="R" xlink:href="#font_13_82" transform="matrix(10.724622,-8.999027,-8.999027,-10.724622,873.12979,354.7253)"/>
<use data-text="A" xlink:href="#font_13_65" transform="matrix(10.724622,-8.999027,-8.999027,-10.724622,880.0452,348.92253)"/>
<use data-text="G" xlink:href="#font_13_71" transform="matrix(10.724622,-8.999027,-8.999027,-10.724622,887.3818,342.76646)"/>
<path transform="matrix(1,0,0,-1,0,373.08073)" d="M944.55746 58.44633V54.94633"/>
<path transform="matrix(1,0,0,-1,0,373.08073)" stroke-width=".8" stroke-linecap="butt" stroke-linejoin="round" fill="none" stroke="#000000" d="M944.55746 58.44633V54.94633"/>
<use data-text="Z" xlink:href="#font_12_90" transform="matrix(15.3208889,-12.855753,-12.855753,-15.3208889,911.32217,358.0202)"/>
<use data-text="a" xlink:href="#font_13_97" transform="matrix(10.724622,-8.999027,-8.999027,-10.724622,923.7462,351.51139)"/>
<use data-text="n" xlink:href="#font_13_110" transform="matrix(10.724622,-8.999027,-8.999027,-10.724622,930.3182,345.99687)"/>
<use data-text="s" xlink:href="#font_13_115" transform="matrix(10.724622,-8.999027,-8.999027,-10.724622,937.11538,340.29338)"/>
<path transform="matrix(1,0,0,-1,0,373.08073)" d="M991.3437 58.44633V54.94633"/>
<path transform="matrix(1,0,0,-1,0,373.08073)" stroke-width=".8" stroke-linecap="butt" stroke-linejoin="round" fill="none" stroke="#000000" d="M991.3437 58.44633V54.94633"/>
<use data-text="Z" xlink:href="#font_12_90" transform="matrix(15.3208889,-12.855753,-12.855753,-15.3208889,953.5121,361.87693)"/>
<use data-text="s" xlink:href="#font_13_115" transform="matrix(10.724622,-8.999027,-8.999027,-10.724622,965.93618,355.3681)"/>
<use data-text="u" xlink:href="#font_13_117" transform="matrix(10.724622,-8.999027,-8.999027,-10.724622,971.5236,350.67967)"/>
<use data-text="m" xlink:href="#font_13_109" transform="matrix(10.724622,-8.999027,-8.999027,-10.724622,978.3208,344.97618)"/>
<path transform="matrix(1,0,0,-1,0,373.08073)" stroke-width="1.8" stroke-linecap="square" stroke-miterlimit="10" stroke-linejoin="miter" fill="none" stroke="#000000" d="M726.15939 58.44633V335.64634"/>
<path transform="matrix(1,0,0,-1,0,373.08073)" stroke-width="1.8" stroke-linecap="square" stroke-miterlimit="10" stroke-linejoin="miter" fill="none" stroke="#000000" d="M1022.59689 58.44633V335.64634"/>
<path transform="matrix(1,0,0,-1,0,373.08073)" stroke-width="1.8" stroke-linecap="square" stroke-miterlimit="10" stroke-linejoin="miter" fill="none" stroke="#000000" d="M726.15939 58.44633H1022.59689"/>
<path transform="matrix(1,0,0,-1,0,373.08073)" stroke-width="1.8" stroke-linecap="square" stroke-miterlimit="10" stroke-linejoin="miter" fill="none" stroke="#000000" d="M726.15939 335.64634H1022.59689"/>
<use data-text="Q" xlink:href="#font_15_81" transform="matrix(24,0,0,-24,745.65158,25.434388)"/>
<use data-text="w" xlink:href="#font_15_119" transform="matrix(24,0,0,-24,766.55557,25.434388)"/>
<use data-text="e" xlink:href="#font_15_101" transform="matrix(24,0,0,-24,787.21566,25.434388)"/>
<use data-text="n" xlink:href="#font_15_110" transform="matrix(24,0,0,-24,802.4757,25.434388)"/>
<use data-text="3" xlink:href="#font_15_51" transform="matrix(24,0,0,-24,819.9276,25.434388)"/>
<use data-text="." xlink:href="#font_15_46" transform="matrix(24,0,0,-24,836.63558,25.434388)"/>
<use data-text="5" xlink:href="#font_15_53" transform="matrix(24,0,0,-24,844.99148,25.434388)"/>
<use data-text=" " xlink:href="#font_15_32" transform="matrix(24,0,0,-24,861.69937,25.434388)"/>
<use data-text="(" xlink:href="#font_15_40" transform="matrix(24,0,0,-24,870.0553,25.434388)"/>
<use data-text="R" xlink:href="#font_15_82" transform="matrix(24,0,0,-24,881.4112,25.434388)"/>
<use data-text="-" xlink:href="#font_15_45" transform="matrix(24,0,0,-24,901.363,25.434388)"/>
<use data-text="s" xlink:href="#font_15_115" transform="matrix(24,0,0,-24,911.3308,25.434388)"/>
<use data-text="t" xlink:href="#font_15_116" transform="matrix(24,0,0,-24,924.8467,25.434388)"/>
<use data-text="r" xlink:href="#font_15_114" transform="matrix(24,0,0,-24,935.9425,25.434388)"/>
<use data-text="u" xlink:href="#font_15_117" transform="matrix(24,0,0,-24,948.5866,25.434388)"/>
<use data-text="c" xlink:href="#font_15_99" transform="matrix(24,0,0,-24,966.0385,25.434388)"/>
<use data-text="t" xlink:href="#font_15_116" transform="matrix(24,0,0,-24,980.65066,25.434388)"/>
<use data-text=")" xlink:href="#font_15_41" transform="matrix(24,0,0,-24,991.7464,25.434388)"/>
<g>
<path transform="matrix(1,0,0,-1,0,373.08073)" d="M856.1125 278.64634H1012.09689C1014.09689 278.64634 1015.09689 279.64634 1015.09689 281.64634V325.14634C1015.09689 327.14634 1014.09689 328.14634 1012.09689 328.14634H856.1125C854.1125 328.14634 853.1125 327.14634 853.1125 325.14634V281.64634C853.1125 279.64634 854.1125 278.64634 856.1125 278.64634Z" fill="#ffffff" fill-opacity=".8"/>
<path transform="matrix(1,0,0,-1,0,373.08073)" stroke-width="1" stroke-linecap="butt" stroke-miterlimit="10" stroke-linejoin="miter" fill="none" stroke="#cccccc" stroke-opacity=".8" d="M856.1125 278.64634H1012.09689C1014.09689 278.64634 1015.09689 279.64634 1015.09689 281.64634V325.14634C1015.09689 327.14634 1014.09689 328.14634 1012.09689 328.14634H856.1125C854.1125 328.14634 853.1125 327.14634 853.1125 325.14634V281.64634C853.1125 279.64634 854.1125 278.64634 856.1125 278.64634Z"/>
</g>
<g clip-path="url(#clip_46)">
<path transform="matrix(1,0,0,-1,792,144)" d="M0 0H72V72H0Z" fill="#f5f5f5"/>
<path transform="matrix(1,0,0,-1,792,144)" d="M-36 36 36 108M-30 30 42 102M-24 24 48 96M-18 18 54 90M-12 12 60 84M-6 6 66 78M0 0 72 72M6-6 78 66M12-12 84 60M18-18 90 54M24-24 96 48M30-30 102 42M36-36 108 36" fill="#888888"/>
<path transform="matrix(1,0,0,-1,792,144)" stroke-width="1" stroke-linecap="butt" stroke-miterlimit="10" stroke-linejoin="miter" fill="none" stroke="#888888" d="M-36 36 36 108M-30 30 42 102M-24 24 48 96M-18 18 54 90M-12 12 60 84M-6 6 66 78M0 0 72 72M6-6 78 66M12-12 84 60M18-18 90 54M24-24 96 48M30-30 102 42M36-36 108 36"/>
<path transform="matrix(1,0,0,-1,864,144)" d="M0 0H72V72H0Z" fill="#f5f5f5"/>
<path transform="matrix(1,0,0,-1,864,144)" d="M-36 36 36 108M-30 30 42 102M-24 24 48 96M-18 18 54 90M-12 12 60 84M-6 6 66 78M0 0 72 72M6-6 78 66M12-12 84 60M18-18 90 54M24-24 96 48M30-30 102 42M36-36 108 36" fill="#888888"/>
<path transform="matrix(1,0,0,-1,864,144)" stroke-width="1" stroke-linecap="butt" stroke-miterlimit="10" stroke-linejoin="miter" fill="none" stroke="#888888" d="M-36 36 36 108M-30 30 42 102M-24 24 48 96M-18 18 54 90M-12 12 60 84M-6 6 66 78M0 0 72 72M6-6 78 66M12-12 84 60M18-18 90 54M24-24 96 48M30-30 102 42M36-36 108 36"/>
<path transform="matrix(1,0,0,-1,792,72)" d="M0 0H72V72H0Z" fill="#f5f5f5"/>
<path transform="matrix(1,0,0,-1,792,72)" d="M-36 36 36 108M-30 30 42 102M-24 24 48 96M-18 18 54 90M-12 12 60 84M-6 6 66 78M0 0 72 72M6-6 78 66M12-12 84 60M18-18 90 54M24-24 96 48M30-30 102 42M36-36 108 36" fill="#888888"/>
<path transform="matrix(1,0,0,-1,792,72)" stroke-width="1" stroke-linecap="butt" stroke-miterlimit="10" stroke-linejoin="miter" fill="none" stroke="#888888" d="M-36 36 36 108M-30 30 42 102M-24 24 48 96M-18 18 54 90M-12 12 60 84M-6 6 66 78M0 0 72 72M6-6 78 66M12-12 84 60M18-18 90 54M24-24 96 48M30-30 102 42M36-36 108 36"/>
<path transform="matrix(1,0,0,-1,864,72)" d="M0 0H72V72H0Z" fill="#f5f5f5"/>
<path transform="matrix(1,0,0,-1,864,72)" d="M-36 36 36 108M-30 30 42 102M-24 24 48 96M-18 18 54 90M-12 12 60 84M-6 6 66 78M0 0 72 72M6-6 78 66M12-12 84 60M18-18 90 54M24-24 96 48M30-30 102 42M36-36 108 36" fill="#888888"/>
<path transform="matrix(1,0,0,-1,864,72)" stroke-width="1" stroke-linecap="butt" stroke-miterlimit="10" stroke-linejoin="miter" fill="none" stroke="#888888" d="M-36 36 36 108M-30 30 42 102M-24 24 48 96M-18 18 54 90M-12 12 60 84M-6 6 66 78M0 0 72 72M6-6 78 66M12-12 84 60M18-18 90 54M24-24 96 48M30-30 102 42M36-36 108 36"/>
</g>
<path transform="matrix(1,0,0,-1,0,373.08073)" stroke-width="1.2" stroke-linecap="butt" stroke-dasharray="4.44,1.92" stroke-miterlimit="10" stroke-linejoin="miter" fill="none" stroke="#888888" d="M859.1125 310.74986H889.1125V321.24986H859.1125Z"/>
<use data-text="N" xlink:href="#font_14_78" transform="matrix(15,0,0,-15,901.1125,62.33087)"/>
<use data-text="o" xlink:href="#font_14_111" transform="matrix(15,0,0,-15,914.2375,62.33087)"/>
<use data-text="n" xlink:href="#font_14_110" transform="matrix(15,0,0,-15,923.268,62.33087)"/>
<use data-text="e" xlink:href="#font_14_101" transform="matrix(15,0,0,-15,932.9236,62.33087)"/>
<use data-text=" " xlink:href="#font_14_32" transform="matrix(15,0,0,-15,941.80166,62.33087)"/>
<use data-text="(" xlink:href="#font_14_40" transform="matrix(15,0,0,-15,946.5692,62.33087)"/>
<use data-text="a" xlink:href="#font_14_97" transform="matrix(15,0,0,-15,952.4265,62.33087)"/>
<use data-text="b" xlink:href="#font_14_98" transform="matrix(15,0,0,-15,961.36117,62.33087)"/>
<use data-text="s" xlink:href="#font_14_115" transform="matrix(15,0,0,-15,970.96847,62.33087)"/>
<use data-text="e" xlink:href="#font_14_101" transform="matrix(15,0,0,-15,978.6688,62.33087)"/>
<use data-text="n" xlink:href="#font_14_110" transform="matrix(15,0,0,-15,987.5469,62.33087)"/>
<use data-text="t" xlink:href="#font_14_116" transform="matrix(15,0,0,-15,997.2025,62.33087)"/>
<use data-text=")" xlink:href="#font_14_41" transform="matrix(15,0,0,-15,1003.2359,62.33087)"/>
<path transform="matrix(1,0,0,-1,0,373.08073)" d="M859.1125 288.24986H889.1125V298.74986H859.1125Z" fill="#daa113"/>
<path transform="matrix(1,0,0,-1,0,373.08073)" stroke-width="1.2" stroke-linecap="butt" stroke-miterlimit="10" stroke-linejoin="miter" fill="none" stroke="#000000" d="M859.1125 288.24986H889.1125V298.74986H859.1125Z"/>
<use data-text="S" xlink:href="#font_14_83" transform="matrix(15,0,0,-15,901.1125,84.83087)"/>
<use data-text="t" xlink:href="#font_14_116" transform="matrix(15,0,0,-15,911.3929,84.83087)"/>
<use data-text="a" xlink:href="#font_14_97" transform="matrix(15,0,0,-15,917.4263,84.83087)"/>
<use data-text="R" xlink:href="#font_14_82" transform="matrix(15,0,0,-15,926.3609,84.83087)"/>
</svg>
